<svg width="1172" height="250" viewBox="0 0 1172 250" xmlns="http://www.w3.org/2000/svg">
<style>text { font-family: -apple-system, BlinkMacSystemFont, "Segoe UI", Helvetica, Arial, sans-serif; font-size: 10px; fill: #767676; } .year-label { font-size: 14px; font-weight: bold; fill: #24292e; } .month-label { font-size: 9px; } .bar:hover { fill: #40c463; } .y-label { text-anchor: end; }</style>
<rect width="1172" height="250" fill="#ffffff" />
<text x="10" y="25" style="font-size: 16px; font-weight: bold; fill: #24292e;">Organization Activity History (Weekly Commits)</text>
<text x="35" y="204" class="y-label">0</text>
<line x1="40" y1="200" x2="1162" y2="200" stroke="#f0f0f0" />
<text x="35" y="167" class="y-label">119</text>
<line x1="40" y1="163" x2="1162" y2="163" stroke="#f0f0f0" />
<text x="35" y="130" class="y-label">239</text>
<line x1="40" y1="126" x2="1162" y2="126" stroke="#f0f0f0" />
<text x="35" y="92" class="y-label">359</text>
<line x1="40" y1="88" x2="1162" y2="88" stroke="#f0f0f0" />
<text x="35" y="54" class="y-label">479</text>
<line x1="40" y1="50" x2="1162" y2="50" stroke="#f0f0f0" />
<line x1="40" y1="50" x2="40" y2="200" stroke="#e1e4e8" />
<rect class="bar" x="40" y="198" width="3" height="2" fill="#ebedf0" rx="0.5" ry="0.5"><title>Week of 2021-01-01: 0 commits</title></rect>
<text x="40" y="240" class="year-label">2021</text>
<line x1="40" y1="50" x2="40" y2="220" stroke="#e1e4e8" stroke-dasharray="2,2" />
<rect class="bar" x="44" y="198" width="3" height="2" fill="#ebedf0" rx="0.5" ry="0.5"><title>Week of 2021-01-08: 0 commits</title></rect>
<rect class="bar" x="48" y="198" width="3" height="2" fill="#ebedf0" rx="0.5" ry="0.5"><title>Week of 2021-01-15: 0 commits</title></rect>
<rect class="bar" x="52" y="198" width="3" height="2" fill="#ebedf0" rx="0.5" ry="0.5"><title>Week of 2021-01-22: 0 commits</title></rect>
<rect class="bar" x="56" y="198" width="3" height="2" fill="#40c463" rx="0.5" ry="0.5"><title>Week of 2021-01-29: 5 commits</title></rect>
<rect class="bar" x="60" y="198" width="3" height="2" fill="#ebedf0" rx="0.5" ry="0.5"><title>Week of 2021-02-05: 0 commits</title></rect>
<text x="60" y="220" class="month-label" transform="rotate(45, 60, 220)">Feb</text>
<rect class="bar" x="64" y="198" width="3" height="2" fill="#40c463" rx="0.5" ry="0.5"><title>Week of 2021-02-12: 8 commits</title></rect>
<rect class="bar" x="68" y="197" width="3" height="3" fill="#40c463" rx="0.5" ry="0.5"><title>Week of 2021-02-19: 11 commits</title></rect>
<rect class="bar" x="72" y="192" width="3" height="8" fill="#40c463" rx="0.5" ry="0.5"><title>Week of 2021-02-26: 27 commits</title></rect>
<rect class="bar" x="76" y="198" width="3" height="2" fill="#40c463" rx="0.5" ry="0.5"><title>Week of 2021-03-05: 2 commits</title></rect>
<text x="76" y="220" class="month-label" transform="rotate(45, 76, 220)">Mar</text>
<rect class="bar" x="80" y="198" width="3" height="2" fill="#ebedf0" rx="0.5" ry="0.5"><title>Week of 2021-03-12: 0 commits</title></rect>
<rect class="bar" x="84" y="196" width="3" height="4" fill="#40c463" rx="0.5" ry="0.5"><title>Week of 2021-03-19: 14 commits</title></rect>
<rect class="bar" x="88" y="198" width="3" height="2" fill="#40c463" rx="0.5" ry="0.5"><title>Week of 2021-03-26: 5 commits</title></rect>
<rect class="bar" x="92" y="198" width="3" height="2" fill="#40c463" rx="0.5" ry="0.5"><title>Week of 2021-04-02: 3 commits</title></rect>
<text x="92" y="220" class="month-label" transform="rotate(45, 92, 220)">Apr</text>
<rect class="bar" x="96" y="198" width="3" height="2" fill="#ebedf0" rx="0.5" ry="0.5"><title>Week of 2021-04-09: 0 commits</title></rect>
<rect class="bar" x="100" y="198" width="3" height="2" fill="#ebedf0" rx="0.5" ry="0.5"><title>Week of 2021-04-16: 0 commits</title></rect>
<rect class="bar" x="104" y="198" width="3" height="2" fill="#ebedf0" rx="0.5" ry="0.5"><title>Week of 2021-04-23: 0 commits</title></rect>
<rect class="bar" x="108" y="198" width="3" height="2" fill="#ebedf0" rx="0.5" ry="0.5"><title>Week of 2021-04-30: 0 commits</title></rect>
<rect class="bar" x="112" y="198" width="3" height="2" fill="#ebedf0" rx="0.5" ry="0.5"><title>Week of 2021-05-07: 0 commits</title></rect>
<text x="112" y="220" class="month-label" transform="rotate(45, 112, 220)">May</text>
<rect class="bar" x="116" y="198" width="3" height="2" fill="#ebedf0" rx="0.5" ry="0.5"><title>Week of 2021-05-14: 0 commits</title></rect>
<rect class="bar" x="120" y="198" width="3" height="2" fill="#ebedf0" rx="0.5" ry="0.5"><title>Week of 2021-05-21: 0 commits</title></rect>
<rect class="bar" x="124" y="198" width="3" height="2" fill="#ebedf0" rx="0.5" ry="0.5"><title>Week of 2021-05-28: 0 commits</title></rect>
<rect class="bar" x="128" y="198" width="3" height="2" fill="#ebedf0" rx="0.5" ry="0.5"><title>Week of 2021-06-04: 0 commits</title></rect>
<text x="128" y="220" class="month-label" transform="rotate(45, 128, 220)">Jun</text>
<rect class="bar" x="132" y="198" width="3" height="2" fill="#ebedf0" rx="0.5" ry="0.5"><title>Week of 2021-06-11: 0 commits</title></rect>
<rect class="bar" x="136" y="198" width="3" height="2" fill="#ebedf0" rx="0.5" ry="0.5"><title>Week of 2021-06-18: 0 commits</title></rect>
<rect class="bar" x="140" y="198" width="3" height="2" fill="#ebedf0" rx="0.5" ry="0.5"><title>Week of 2021-06-25: 0 commits</title></rect>
<rect class="bar" x="144" y="198" width="3" height="2" fill="#ebedf0" rx="0.5" ry="0.5"><title>Week of 2021-07-02: 0 commits</title></rect>
<text x="144" y="220" class="month-label" transform="rotate(45, 144, 220)">Jul</text>
<rect class="bar" x="148" y="198" width="3" height="2" fill="#ebedf0" rx="0.5" ry="0.5"><title>Week of 2021-07-09: 0 commits</title></rect>
<rect class="bar" x="152" y="198" width="3" height="2" fill="#ebedf0" rx="0.5" ry="0.5"><title>Week of 2021-07-16: 0 commits</title></rect>
<rect class="bar" x="156" y="198" width="3" height="2" fill="#ebedf0" rx="0.5" ry="0.5"><title>Week of 2021-07-23: 0 commits</title></rect>
<rect class="bar" x="160" y="198" width="3" height="2" fill="#ebedf0" rx="0.5" ry="0.5"><title>Week of 2021-07-30: 0 commits</title></rect>
<rect class="bar" x="164" y="198" width="3" height="2" fill="#ebedf0" rx="0.5" ry="0.5"><title>Week of 2021-08-06: 0 commits</title></rect>
<text x="164" y="220" class="month-label" transform="rotate(45, 164, 220)">Aug</text>
<rect class="bar" x="168" y="198" width="3" height="2" fill="#ebedf0" rx="0.5" ry="0.5"><title>Week of 2021-08-13: 0 commits</title></rect>
<rect class="bar" x="172" y="198" width="3" height="2" fill="#ebedf0" rx="0.5" ry="0.5"><title>Week of 2021-08-20: 0 commits</title></rect>
<rect class="bar" x="176" y="198" width="3" height="2" fill="#ebedf0" rx="0.5" ry="0.5"><title>Week of 2021-08-27: 0 commits</title></rect>
<rect class="bar" x="180" y="198" width="3" height="2" fill="#ebedf0" rx="0.5" ry="0.5"><title>Week of 2021-09-03: 0 commits</title></rect>
<text x="180" y="220" class="month-label" transform="rotate(45, 180, 220)">Sep</text>
<rect class="bar" x="184" y="198" width="3" height="2" fill="#ebedf0" rx="0.5" ry="0.5"><title>Week of 2021-09-10: 0 commits</title></rect>
<rect class="bar" x="188" y="198" width="3" height="2" fill="#40c463" rx="0.5" ry="0.5"><title>Week of 2021-09-17: 1 commits</title></rect>
<rect class="bar" x="192" y="198" width="3" height="2" fill="#ebedf0" rx="0.5" ry="0.5"><title>Week of 2021-09-24: 0 commits</title></rect>
<rect class="bar" x="196" y="198" width="3" height="2" fill="#ebedf0" rx="0.5" ry="0.5"><title>Week of 2021-10-01: 0 commits</title></rect>
<text x="196" y="220" class="month-label" transform="rotate(45, 196, 220)">Oct</text>
<rect class="bar" x="200" y="198" width="3" height="2" fill="#ebedf0" rx="0.5" ry="0.5"><title>Week of 2021-10-08: 0 commits</title></rect>
<rect class="bar" x="204" y="198" width="3" height="2" fill="#ebedf0" rx="0.5" ry="0.5"><title>Week of 2021-10-15: 0 commits</title></rect>
<rect class="bar" x="208" y="198" width="3" height="2" fill="#ebedf0" rx="0.5" ry="0.5"><title>Week of 2021-10-22: 0 commits</title></rect>
<rect class="bar" x="212" y="198" width="3" height="2" fill="#ebedf0" rx="0.5" ry="0.5"><title>Week of 2021-10-29: 0 commits</title></rect>
<rect class="bar" x="216" y="198" width="3" height="2" fill="#ebedf0" rx="0.5" ry="0.5"><title>Week of 2021-11-05: 0 commits</title></rect>
<text x="216" y="220" class="month-label" transform="rotate(45, 216, 220)">Nov</text>
<rect class="bar" x="220" y="198" width="3" height="2" fill="#ebedf0" rx="0.5" ry="0.5"><title>Week of 2021-11-12: 0 commits</title></rect>
<rect class="bar" x="224" y="198" width="3" height="2" fill="#ebedf0" rx="0.5" ry="0.5"><title>Week of 2021-11-19: 0 commits</title></rect>
<rect class="bar" x="228" y="198" width="3" height="2" fill="#ebedf0" rx="0.5" ry="0.5"><title>Week of 2021-11-26: 0 commits</title></rect>
<rect class="bar" x="232" y="198" width="3" height="2" fill="#ebedf0" rx="0.5" ry="0.5"><title>Week of 2021-12-03: 0 commits</title></rect>
<text x="232" y="220" class="month-label" transform="rotate(45, 232, 220)">Dec</text>
<rect class="bar" x="236" y="198" width="3" height="2" fill="#ebedf0" rx="0.5" ry="0.5"><title>Week of 2021-12-10: 0 commits</title></rect>
<rect class="bar" x="240" y="198" width="3" height="2" fill="#ebedf0" rx="0.5" ry="0.5"><title>Week of 2021-12-17: 0 commits</title></rect>
<rect class="bar" x="244" y="198" width="3" height="2" fill="#ebedf0" rx="0.5" ry="0.5"><title>Week of 2021-12-24: 0 commits</title></rect>
<rect class="bar" x="248" y="198" width="3" height="2" fill="#ebedf0" rx="0.5" ry="0.5"><title>Week of 2021-12-31: 0 commits</title></rect>
<rect class="bar" x="252" y="198" width="3" height="2" fill="#ebedf0" rx="0.5" ry="0.5"><title>Week of 2022-01-07: 0 commits</title></rect>
<text x="252" y="240" class="year-label">2022</text>
<line x1="252" y1="50" x2="252" y2="220" stroke="#e1e4e8" stroke-dasharray="2,2" />
<rect class="bar" x="256" y="198" width="3" height="2" fill="#ebedf0" rx="0.5" ry="0.5"><title>Week of 2022-01-14: 0 commits</title></rect>
<rect class="bar" x="260" y="198" width="3" height="2" fill="#ebedf0" rx="0.5" ry="0.5"><title>Week of 2022-01-21: 0 commits</title></rect>
<rect class="bar" x="264" y="198" width="3" height="2" fill="#ebedf0" rx="0.5" ry="0.5"><title>Week of 2022-01-28: 0 commits</title></rect>
<rect class="bar" x="268" y="198" width="3" height="2" fill="#ebedf0" rx="0.5" ry="0.5"><title>Week of 2022-02-04: 0 commits</title></rect>
<text x="268" y="220" class="month-label" transform="rotate(45, 268, 220)">Feb</text>
<rect class="bar" x="272" y="198" width="3" height="2" fill="#40c463" rx="0.5" ry="0.5"><title>Week of 2022-02-11: 1 commits</title></rect>
<rect class="bar" x="276" y="198" width="3" height="2" fill="#ebedf0" rx="0.5" ry="0.5"><title>Week of 2022-02-18: 0 commits</title></rect>
<rect class="bar" x="280" y="198" width="3" height="2" fill="#40c463" rx="0.5" ry="0.5"><title>Week of 2022-02-25: 1 commits</title></rect>
<rect class="bar" x="284" y="198" width="3" height="2" fill="#ebedf0" rx="0.5" ry="0.5"><title>Week of 2022-03-04: 0 commits</title></rect>
<text x="284" y="220" class="month-label" transform="rotate(45, 284, 220)">Mar</text>
<rect class="bar" x="288" y="198" width="3" height="2" fill="#ebedf0" rx="0.5" ry="0.5"><title>Week of 2022-03-11: 0 commits</title></rect>
<rect class="bar" x="292" y="198" width="3" height="2" fill="#ebedf0" rx="0.5" ry="0.5"><title>Week of 2022-03-18: 0 commits</title></rect>
<rect class="bar" x="296" y="198" width="3" height="2" fill="#ebedf0" rx="0.5" ry="0.5"><title>Week of 2022-03-25: 0 commits</title></rect>
<rect class="bar" x="300" y="198" width="3" height="2" fill="#ebedf0" rx="0.5" ry="0.5"><title>Week of 2022-04-01: 0 commits</title></rect>
<text x="300" y="220" class="month-label" transform="rotate(45, 300, 220)">Apr</text>
<rect class="bar" x="304" y="198" width="3" height="2" fill="#ebedf0" rx="0.5" ry="0.5"><title>Week of 2022-04-08: 0 commits</title></rect>
<rect class="bar" x="308" y="198" width="3" height="2" fill="#ebedf0" rx="0.5" ry="0.5"><title>Week of 2022-04-15: 0 commits</title></rect>
<rect class="bar" x="312" y="198" width="3" height="2" fill="#ebedf0" rx="0.5" ry="0.5"><title>Week of 2022-04-22: 0 commits</title></rect>
<rect class="bar" x="316" y="198" width="3" height="2" fill="#ebedf0" rx="0.5" ry="0.5"><title>Week of 2022-04-29: 0 commits</title></rect>
<rect class="bar" x="320" y="198" width="3" height="2" fill="#ebedf0" rx="0.5" ry="0.5"><title>Week of 2022-05-06: 0 commits</title></rect>
<text x="320" y="220" class="month-label" transform="rotate(45, 320, 220)">May</text>
<rect class="bar" x="324" y="198" width="3" height="2" fill="#40c463" rx="0.5" ry="0.5"><title>Week of 2022-05-13: 3 commits</title></rect>
<rect class="bar" x="328" y="198" width="3" height="2" fill="#ebedf0" rx="0.5" ry="0.5"><title>Week of 2022-05-20: 0 commits</title></rect>
<rect class="bar" x="332" y="198" width="3" height="2" fill="#ebedf0" rx="0.5" ry="0.5"><title>Week of 2022-05-27: 0 commits</title></rect>
<rect class="bar" x="336" y="198" width="3" height="2" fill="#ebedf0" rx="0.5" ry="0.5"><title>Week of 2022-06-03: 0 commits</title></rect>
<text x="336" y="220" class="month-label" transform="rotate(45, 336, 220)">Jun</text>
<rect class="bar" x="340" y="198" width="3" height="2" fill="#ebedf0" rx="0.5" ry="0.5"><title>Week of 2022-06-10: 0 commits</title></rect>
<rect class="bar" x="344" y="198" width="3" height="2" fill="#ebedf0" rx="0.5" ry="0.5"><title>Week of 2022-06-17: 0 commits</title></rect>
<rect class="bar" x="348" y="198" width="3" height="2" fill="#ebedf0" rx="0.5" ry="0.5"><title>Week of 2022-06-24: 0 commits</title></rect>
<rect class="bar" x="352" y="198" width="3" height="2" fill="#ebedf0" rx="0.5" ry="0.5"><title>Week of 2022-07-01: 0 commits</title></rect>
<text x="352" y="220" class="month-label" transform="rotate(45, 352, 220)">Jul</text>
<rect class="bar" x="356" y="198" width="3" height="2" fill="#ebedf0" rx="0.5" ry="0.5"><title>Week of 2022-07-08: 0 commits</title></rect>
<rect class="bar" x="360" y="198" width="3" height="2" fill="#ebedf0" rx="0.5" ry="0.5"><title>Week of 2022-07-15: 0 commits</title></rect>
<rect class="bar" x="364" y="198" width="3" height="2" fill="#ebedf0" rx="0.5" ry="0.5"><title>Week of 2022-07-22: 0 commits</title></rect>
<rect class="bar" x="368" y="198" width="3" height="2" fill="#ebedf0" rx="0.5" ry="0.5"><title>Week of 2022-07-29: 0 commits</title></rect>
<rect class="bar" x="372" y="198" width="3" height="2" fill="#ebedf0" rx="0.5" ry="0.5"><title>Week of 2022-08-05: 0 commits</title></rect>
<text x="372" y="220" class="month-label" transform="rotate(45, 372, 220)">Aug</text>
<rect class="bar" x="376" y="198" width="3" height="2" fill="#ebedf0" rx="0.5" ry="0.5"><title>Week of 2022-08-12: 0 commits</title></rect>
<rect class="bar" x="380" y="198" width="3" height="2" fill="#ebedf0" rx="0.5" ry="0.5"><title>Week of 2022-08-19: 0 commits</title></rect>
<rect class="bar" x="384" y="198" width="3" height="2" fill="#ebedf0" rx="0.5" ry="0.5"><title>Week of 2022-08-26: 0 commits</title></rect>
<rect class="bar" x="388" y="198" width="3" height="2" fill="#ebedf0" rx="0.5" ry="0.5"><title>Week of 2022-09-02: 0 commits</title></rect>
<text x="388" y="220" class="month-label" transform="rotate(45, 388, 220)">Sep</text>
<rect class="bar" x="392" y="198" width="3" height="2" fill="#ebedf0" rx="0.5" ry="0.5"><title>Week of 2022-09-09: 0 commits</title></rect>
<rect class="bar" x="396" y="198" width="3" height="2" fill="#ebedf0" rx="0.5" ry="0.5"><title>Week of 2022-09-16: 0 commits</title></rect>
<rect class="bar" x="400" y="198" width="3" height="2" fill="#ebedf0" rx="0.5" ry="0.5"><title>Week of 2022-09-23: 0 commits</title></rect>
<rect class="bar" x="404" y="198" width="3" height="2" fill="#40c463" rx="0.5" ry="0.5"><title>Week of 2022-09-30: 1 commits</title></rect>
<rect class="bar" x="408" y="198" width="3" height="2" fill="#ebedf0" rx="0.5" ry="0.5"><title>Week of 2022-10-07: 0 commits</title></rect>
<text x="408" y="220" class="month-label" transform="rotate(45, 408, 220)">Oct</text>
<rect class="bar" x="412" y="198" width="3" height="2" fill="#ebedf0" rx="0.5" ry="0.5"><title>Week of 2022-10-14: 0 commits</title></rect>
<rect class="bar" x="416" y="198" width="3" height="2" fill="#ebedf0" rx="0.5" ry="0.5"><title>Week of 2022-10-21: 0 commits</title></rect>
<rect class="bar" x="420" y="198" width="3" height="2" fill="#ebedf0" rx="0.5" ry="0.5"><title>Week of 2022-10-28: 0 commits</title></rect>
<rect class="bar" x="424" y="198" width="3" height="2" fill="#ebedf0" rx="0.5" ry="0.5"><title>Week of 2022-11-04: 0 commits</title></rect>
<text x="424" y="220" class="month-label" transform="rotate(45, 424, 220)">Nov</text>
<rect class="bar" x="428" y="198" width="3" height="2" fill="#ebedf0" rx="0.5" ry="0.5"><title>Week of 2022-11-11: 0 commits</title></rect>
<rect class="bar" x="432" y="198" width="3" height="2" fill="#ebedf0" rx="0.5" ry="0.5"><title>Week of 2022-11-18: 0 commits</title></rect>
<rect class="bar" x="436" y="198" width="3" height="2" fill="#ebedf0" rx="0.5" ry="0.5"><title>Week of 2022-11-25: 0 commits</title></rect>
<rect class="bar" x="440" y="198" width="3" height="2" fill="#ebedf0" rx="0.5" ry="0.5"><title>Week of 2022-12-02: 0 commits</title></rect>
<text x="440" y="220" class="month-label" transform="rotate(45, 440, 220)">Dec</text>
<rect class="bar" x="444" y="198" width="3" height="2" fill="#ebedf0" rx="0.5" ry="0.5"><title>Week of 2022-12-09: 0 commits</title></rect>
<rect class="bar" x="448" y="198" width="3" height="2" fill="#ebedf0" rx="0.5" ry="0.5"><title>Week of 2022-12-16: 0 commits</title></rect>
<rect class="bar" x="452" y="198" width="3" height="2" fill="#ebedf0" rx="0.5" ry="0.5"><title>Week of 2022-12-23: 0 commits</title></rect>
<rect class="bar" x="456" y="198" width="3" height="2" fill="#ebedf0" rx="0.5" ry="0.5"><title>Week of 2022-12-30: 0 commits</title></rect>
<rect class="bar" x="460" y="198" width="3" height="2" fill="#ebedf0" rx="0.5" ry="0.5"><title>Week of 2023-01-06: 0 commits</title></rect>
<text x="460" y="240" class="year-label">2023</text>
<line x1="460" y1="50" x2="460" y2="220" stroke="#e1e4e8" stroke-dasharray="2,2" />
<rect class="bar" x="464" y="198" width="3" height="2" fill="#ebedf0" rx="0.5" ry="0.5"><title>Week of 2023-01-13: 0 commits</title></rect>
<rect class="bar" x="468" y="198" width="3" height="2" fill="#ebedf0" rx="0.5" ry="0.5"><title>Week of 2023-01-20: 0 commits</title></rect>
<rect class="bar" x="472" y="198" width="3" height="2" fill="#ebedf0" rx="0.5" ry="0.5"><title>Week of 2023-01-27: 0 commits</title></rect>
<rect class="bar" x="476" y="198" width="3" height="2" fill="#ebedf0" rx="0.5" ry="0.5"><title>Week of 2023-02-03: 0 commits</title></rect>
<text x="476" y="220" class="month-label" transform="rotate(45, 476, 220)">Feb</text>
<rect class="bar" x="480" y="198" width="3" height="2" fill="#ebedf0" rx="0.5" ry="0.5"><title>Week of 2023-02-10: 0 commits</title></rect>
<rect class="bar" x="484" y="198" width="3" height="2" fill="#ebedf0" rx="0.5" ry="0.5"><title>Week of 2023-02-17: 0 commits</title></rect>
<rect class="bar" x="488" y="198" width="3" height="2" fill="#ebedf0" rx="0.5" ry="0.5"><title>Week of 2023-02-24: 0 commits</title></rect>
<rect class="bar" x="492" y="198" width="3" height="2" fill="#ebedf0" rx="0.5" ry="0.5"><title>Week of 2023-03-03: 0 commits</title></rect>
<text x="492" y="220" class="month-label" transform="rotate(45, 492, 220)">Mar</text>
<rect class="bar" x="496" y="198" width="3" height="2" fill="#ebedf0" rx="0.5" ry="0.5"><title>Week of 2023-03-10: 0 commits</title></rect>
<rect class="bar" x="500" y="198" width="3" height="2" fill="#ebedf0" rx="0.5" ry="0.5"><title>Week of 2023-03-17: 0 commits</title></rect>
<rect class="bar" x="504" y="198" width="3" height="2" fill="#ebedf0" rx="0.5" ry="0.5"><title>Week of 2023-03-24: 0 commits</title></rect>
<rect class="bar" x="508" y="198" width="3" height="2" fill="#ebedf0" rx="0.5" ry="0.5"><title>Week of 2023-03-31: 0 commits</title></rect>
<rect class="bar" x="512" y="198" width="3" height="2" fill="#ebedf0" rx="0.5" ry="0.5"><title>Week of 2023-04-07: 0 commits</title></rect>
<text x="512" y="220" class="month-label" transform="rotate(45, 512, 220)">Apr</text>
<rect class="bar" x="516" y="198" width="3" height="2" fill="#ebedf0" rx="0.5" ry="0.5"><title>Week of 2023-04-14: 0 commits</title></rect>
<rect class="bar" x="520" y="198" width="3" height="2" fill="#ebedf0" rx="0.5" ry="0.5"><title>Week of 2023-04-21: 0 commits</title></rect>
<rect class="bar" x="524" y="198" width="3" height="2" fill="#ebedf0" rx="0.5" ry="0.5"><title>Week of 2023-04-28: 0 commits</title></rect>
<rect class="bar" x="528" y="198" width="3" height="2" fill="#ebedf0" rx="0.5" ry="0.5"><title>Week of 2023-05-05: 0 commits</title></rect>
<text x="528" y="220" class="month-label" transform="rotate(45, 528, 220)">May</text>
<rect class="bar" x="532" y="198" width="3" height="2" fill="#ebedf0" rx="0.5" ry="0.5"><title>Week of 2023-05-12: 0 commits</title></rect>
<rect class="bar" x="536" y="198" width="3" height="2" fill="#40c463" rx="0.5" ry="0.5"><title>Week of 2023-05-19: 8 commits</title></rect>
<rect class="bar" x="540" y="198" width="3" height="2" fill="#ebedf0" rx="0.5" ry="0.5"><title>Week of 2023-05-26: 0 commits</title></rect>
<rect class="bar" x="544" y="198" width="3" height="2" fill="#ebedf0" rx="0.5" ry="0.5"><title>Week of 2023-06-02: 0 commits</title></rect>
<text x="544" y="220" class="month-label" transform="rotate(45, 544, 220)">Jun</text>
<rect class="bar" x="548" y="198" width="3" height="2" fill="#ebedf0" rx="0.5" ry="0.5"><title>Week of 2023-06-09: 0 commits</title></rect>
<rect class="bar" x="552" y="198" width="3" height="2" fill="#ebedf0" rx="0.5" ry="0.5"><title>Week of 2023-06-16: 0 commits</title></rect>
<rect class="bar" x="556" y="198" width="3" height="2" fill="#ebedf0" rx="0.5" ry="0.5"><title>Week of 2023-06-23: 0 commits</title></rect>
<rect class="bar" x="560" y="198" width="3" height="2" fill="#ebedf0" rx="0.5" ry="0.5"><title>Week of 2023-06-30: 0 commits</title></rect>
<rect class="bar" x="564" y="198" width="3" height="2" fill="#40c463" rx="0.5" ry="0.5"><title>Week of 2023-07-07: 1 commits</title></rect>
<text x="564" y="220" class="month-label" transform="rotate(45, 564, 220)">Jul</text>
<rect class="bar" x="568" y="198" width="3" height="2" fill="#ebedf0" rx="0.5" ry="0.5"><title>Week of 2023-07-14: 0 commits</title></rect>
<rect class="bar" x="572" y="198" width="3" height="2" fill="#ebedf0" rx="0.5" ry="0.5"><title>Week of 2023-07-21: 0 commits</title></rect>
<rect class="bar" x="576" y="198" width="3" height="2" fill="#ebedf0" rx="0.5" ry="0.5"><title>Week of 2023-07-28: 0 commits</title></rect>
<rect class="bar" x="580" y="198" width="3" height="2" fill="#ebedf0" rx="0.5" ry="0.5"><title>Week of 2023-08-04: 0 commits</title></rect>
<text x="580" y="220" class="month-label" transform="rotate(45, 580, 220)">Aug</text>
<rect class="bar" x="584" y="198" width="3" height="2" fill="#ebedf0" rx="0.5" ry="0.5"><title>Week of 2023-08-11: 0 commits</title></rect>
<rect class="bar" x="588" y="198" width="3" height="2" fill="#ebedf0" rx="0.5" ry="0.5"><title>Week of 2023-08-18: 0 commits</title></rect>
<rect class="bar" x="592" y="198" width="3" height="2" fill="#40c463" rx="0.5" ry="0.5"><title>Week of 2023-08-25: 2 commits</title></rect>
<rect class="bar" x="596" y="198" width="3" height="2" fill="#ebedf0" rx="0.5" ry="0.5"><title>Week of 2023-09-01: 0 commits</title></rect>
<text x="596" y="220" class="month-label" transform="rotate(45, 596, 220)">Sep</text>
<rect class="bar" x="600" y="198" width="3" height="2" fill="#ebedf0" rx="0.5" ry="0.5"><title>Week of 2023-09-08: 0 commits</title></rect>
<rect class="bar" x="604" y="198" width="3" height="2" fill="#ebedf0" rx="0.5" ry="0.5"><title>Week of 2023-09-15: 0 commits</title></rect>
<rect class="bar" x="608" y="198" width="3" height="2" fill="#ebedf0" rx="0.5" ry="0.5"><title>Week of 2023-09-22: 0 commits</title></rect>
<rect class="bar" x="612" y="198" width="3" height="2" fill="#40c463" rx="0.5" ry="0.5"><title>Week of 2023-09-29: 1 commits</title></rect>
<rect class="bar" x="616" y="198" width="3" height="2" fill="#ebedf0" rx="0.5" ry="0.5"><title>Week of 2023-10-06: 0 commits</title></rect>
<text x="616" y="220" class="month-label" transform="rotate(45, 616, 220)">Oct</text>
<rect class="bar" x="620" y="198" width="3" height="2" fill="#ebedf0" rx="0.5" ry="0.5"><title>Week of 2023-10-13: 0 commits</title></rect>
<rect class="bar" x="624" y="198" width="3" height="2" fill="#ebedf0" rx="0.5" ry="0.5"><title>Week of 2023-10-20: 0 commits</title></rect>
<rect class="bar" x="628" y="198" width="3" height="2" fill="#ebedf0" rx="0.5" ry="0.5"><title>Week of 2023-10-27: 0 commits</title></rect>
<rect class="bar" x="632" y="198" width="3" height="2" fill="#ebedf0" rx="0.5" ry="0.5"><title>Week of 2023-11-03: 0 commits</title></rect>
<text x="632" y="220" class="month-label" transform="rotate(45, 632, 220)">Nov</text>
<rect class="bar" x="636" y="198" width="3" height="2" fill="#ebedf0" rx="0.5" ry="0.5"><title>Week of 2023-11-10: 0 commits</title></rect>
<rect class="bar" x="640" y="198" width="3" height="2" fill="#ebedf0" rx="0.5" ry="0.5"><title>Week of 2023-11-17: 0 commits</title></rect>
<rect class="bar" x="644" y="198" width="3" height="2" fill="#ebedf0" rx="0.5" ry="0.5"><title>Week of 2023-11-24: 0 commits</title></rect>
<rect class="bar" x="648" y="198" width="3" height="2" fill="#ebedf0" rx="0.5" ry="0.5"><title>Week of 2023-12-01: 0 commits</title></rect>
<text x="648" y="220" class="month-label" transform="rotate(45, 648, 220)">Dec</text>
<rect class="bar" x="652" y="198" width="3" height="2" fill="#ebedf0" rx="0.5" ry="0.5"><title>Week of 2023-12-08: 0 commits</title></rect>
<rect class="bar" x="656" y="198" width="3" height="2" fill="#ebedf0" rx="0.5" ry="0.5"><title>Week of 2023-12-15: 0 commits</title></rect>
<rect class="bar" x="660" y="198" width="3" height="2" fill="#ebedf0" rx="0.5" ry="0.5"><title>Week of 2023-12-22: 0 commits</title></rect>
<rect class="bar" x="664" y="198" width="3" height="2" fill="#ebedf0" rx="0.5" ry="0.5"><title>Week of 2023-12-29: 0 commits</title></rect>
<rect class="bar" x="668" y="198" width="3" height="2" fill="#ebedf0" rx="0.5" ry="0.5"><title>Week of 2024-01-05: 0 commits</title></rect>
<text x="668" y="240" class="year-label">2024</text>
<line x1="668" y1="50" x2="668" y2="220" stroke="#e1e4e8" stroke-dasharray="2,2" />
<rect class="bar" x="672" y="198" width="3" height="2" fill="#40c463" rx="0.5" ry="0.5"><title>Week of 2024-01-12: 1 commits</title></rect>
<rect class="bar" x="676" y="198" width="3" height="2" fill="#ebedf0" rx="0.5" ry="0.5"><title>Week of 2024-01-19: 0 commits</title></rect>
<rect class="bar" x="680" y="198" width="3" height="2" fill="#ebedf0" rx="0.5" ry="0.5"><title>Week of 2024-01-26: 0 commits</title></rect>
<rect class="bar" x="684" y="198" width="3" height="2" fill="#ebedf0" rx="0.5" ry="0.5"><title>Week of 2024-02-02: 0 commits</title></rect>
<text x="684" y="220" class="month-label" transform="rotate(45, 684, 220)">Feb</text>
<rect class="bar" x="688" y="198" width="3" height="2" fill="#ebedf0" rx="0.5" ry="0.5"><title>Week of 2024-02-09: 0 commits</title></rect>
<rect class="bar" x="692" y="198" width="3" height="2" fill="#ebedf0" rx="0.5" ry="0.5"><title>Week of 2024-02-16: 0 commits</title></rect>
<rect class="bar" x="696" y="198" width="3" height="2" fill="#ebedf0" rx="0.5" ry="0.5"><title>Week of 2024-02-23: 0 commits</title></rect>
<rect class="bar" x="700" y="198" width="3" height="2" fill="#ebedf0" rx="0.5" ry="0.5"><title>Week of 2024-03-01: 0 commits</title></rect>
<text x="700" y="220" class="month-label" transform="rotate(45, 700, 220)">Mar</text>
<rect class="bar" x="704" y="198" width="3" height="2" fill="#ebedf0" rx="0.5" ry="0.5"><title>Week of 2024-03-08: 0 commits</title></rect>
<rect class="bar" x="708" y="198" width="3" height="2" fill="#ebedf0" rx="0.5" ry="0.5"><title>Week of 2024-03-15: 0 commits</title></rect>
<rect class="bar" x="712" y="198" width="3" height="2" fill="#ebedf0" rx="0.5" ry="0.5"><title>Week of 2024-03-22: 0 commits</title></rect>
<rect class="bar" x="716" y="198" width="3" height="2" fill="#ebedf0" rx="0.5" ry="0.5"><title>Week of 2024-03-29: 0 commits</title></rect>
<rect class="bar" x="720" y="198" width="3" height="2" fill="#ebedf0" rx="0.5" ry="0.5"><title>Week of 2024-04-05: 0 commits</title></rect>
<text x="720" y="220" class="month-label" transform="rotate(45, 720, 220)">Apr</text>
<rect class="bar" x="724" y="198" width="3" height="2" fill="#ebedf0" rx="0.5" ry="0.5"><title>Week of 2024-04-12: 0 commits</title></rect>
<rect class="bar" x="728" y="198" width="3" height="2" fill="#ebedf0" rx="0.5" ry="0.5"><title>Week of 2024-04-19: 0 commits</title></rect>
<rect class="bar" x="732" y="198" width="3" height="2" fill="#40c463" rx="0.5" ry="0.5"><title>Week of 2024-04-26: 4 commits</title></rect>
<rect class="bar" x="736" y="198" width="3" height="2" fill="#ebedf0" rx="0.5" ry="0.5"><title>Week of 2024-05-03: 0 commits</title></rect>
<text x="736" y="220" class="month-label" transform="rotate(45, 736, 220)">May</text>
<rect class="bar" x="740" y="198" width="3" height="2" fill="#ebedf0" rx="0.5" ry="0.5"><title>Week of 2024-05-10: 0 commits</title></rect>
<rect class="bar" x="744" y="198" width="3" height="2" fill="#ebedf0" rx="0.5" ry="0.5"><title>Week of 2024-05-17: 0 commits</title></rect>
<rect class="bar" x="748" y="198" width="3" height="2" fill="#ebedf0" rx="0.5" ry="0.5"><title>Week of 2024-05-24: 0 commits</title></rect>
<rect class="bar" x="752" y="198" width="3" height="2" fill="#ebedf0" rx="0.5" ry="0.5"><title>Week of 2024-05-31: 0 commits</title></rect>
<rect class="bar" x="756" y="198" width="3" height="2" fill="#ebedf0" rx="0.5" ry="0.5"><title>Week of 2024-06-07: 0 commits</title></rect>
<text x="756" y="220" class="month-label" transform="rotate(45, 756, 220)">Jun</text>
<rect class="bar" x="760" y="196" width="3" height="4" fill="#40c463" rx="0.5" ry="0.5"><title>Week of 2024-06-14: 15 commits</title></rect>
<rect class="bar" x="764" y="197" width="3" height="3" fill="#40c463" rx="0.5" ry="0.5"><title>Week of 2024-06-21: 10 commits</title></rect>
<rect class="bar" x="768" y="198" width="3" height="2" fill="#40c463" rx="0.5" ry="0.5"><title>Week of 2024-06-28: 4 commits</title></rect>
<rect class="bar" x="772" y="194" width="3" height="6" fill="#40c463" rx="0.5" ry="0.5"><title>Week of 2024-07-05: 22 commits</title></rect>
<text x="772" y="220" class="month-label" transform="rotate(45, 772, 220)">Jul</text>
<rect class="bar" x="776" y="198" width="3" height="2" fill="#40c463" rx="0.5" ry="0.5"><title>Week of 2024-07-12: 3 commits</title></rect>
<rect class="bar" x="780" y="198" width="3" height="2" fill="#40c463" rx="0.5" ry="0.5"><title>Week of 2024-07-19: 4 commits</title></rect>
<rect class="bar" x="784" y="198" width="3" height="2" fill="#ebedf0" rx="0.5" ry="0.5"><title>Week of 2024-07-26: 0 commits</title></rect>
<rect class="bar" x="788" y="198" width="3" height="2" fill="#40c463" rx="0.5" ry="0.5"><title>Week of 2024-08-02: 5 commits</title></rect>
<text x="788" y="220" class="month-label" transform="rotate(45, 788, 220)">Aug</text>
<rect class="bar" x="792" y="198" width="3" height="2" fill="#40c463" rx="0.5" ry="0.5"><title>Week of 2024-08-09: 6 commits</title></rect>
<rect class="bar" x="796" y="196" width="3" height="4" fill="#40c463" rx="0.5" ry="0.5"><title>Week of 2024-08-16: 14 commits</title></rect>
<rect class="bar" x="800" y="198" width="3" height="2" fill="#ebedf0" rx="0.5" ry="0.5"><title>Week of 2024-08-23: 0 commits</title></rect>
<rect class="bar" x="804" y="197" width="3" height="3" fill="#40c463" rx="0.5" ry="0.5"><title>Week of 2024-08-30: 10 commits</title></rect>
<rect class="bar" x="808" y="198" width="3" height="2" fill="#40c463" rx="0.5" ry="0.5"><title>Week of 2024-09-06: 3 commits</title></rect>
<text x="808" y="220" class="month-label" transform="rotate(45, 808, 220)">Sep</text>
<rect class="bar" x="812" y="198" width="3" height="2" fill="#40c463" rx="0.5" ry="0.5"><title>Week of 2024-09-13: 5 commits</title></rect>
<rect class="bar" x="816" y="198" width="3" height="2" fill="#40c463" rx="0.5" ry="0.5"><title>Week of 2024-09-20: 1 commits</title></rect>
<rect class="bar" x="820" y="198" width="3" height="2" fill="#40c463" rx="0.5" ry="0.5"><title>Week of 2024-09-27: 8 commits</title></rect>
<rect class="bar" x="824" y="198" width="3" height="2" fill="#40c463" rx="0.5" ry="0.5"><title>Week of 2024-10-04: 1 commits</title></rect>
<text x="824" y="220" class="month-label" transform="rotate(45, 824, 220)">Oct</text>
<rect class="bar" x="828" y="198" width="3" height="2" fill="#40c463" rx="0.5" ry="0.5"><title>Week of 2024-10-11: 7 commits</title></rect>
<rect class="bar" x="832" y="197" width="3" height="3" fill="#40c463" rx="0.5" ry="0.5"><title>Week of 2024-10-18: 10 commits</title></rect>
<rect class="bar" x="836" y="198" width="3" height="2" fill="#ebedf0" rx="0.5" ry="0.5"><title>Week of 2024-10-25: 0 commits</title></rect>
<rect class="bar" x="840" y="198" width="3" height="2" fill="#40c463" rx="0.5" ry="0.5"><title>Week of 2024-11-01: 2 commits</title></rect>
<text x="840" y="220" class="month-label" transform="rotate(45, 840, 220)">Nov</text>
<rect class="bar" x="844" y="198" width="3" height="2" fill="#40c463" rx="0.5" ry="0.5"><title>Week of 2024-11-08: 1 commits</title></rect>
<rect class="bar" x="848" y="198" width="3" height="2" fill="#40c463" rx="0.5" ry="0.5"><title>Week of 2024-11-15: 5 commits</title></rect>
<rect class="bar" x="852" y="198" width="3" height="2" fill="#ebedf0" rx="0.5" ry="0.5"><title>Week of 2024-11-22: 0 commits</title></rect>
<rect class="bar" x="856" y="198" width="3" height="2" fill="#ebedf0" rx="0.5" ry="0.5"><title>Week of 2024-11-29: 0 commits</title></rect>
<rect class="bar" x="860" y="198" width="3" height="2" fill="#40c463" rx="0.5" ry="0.5"><title>Week of 2024-12-06: 4 commits</title></rect>
<text x="860" y="220" class="month-label" transform="rotate(45, 860, 220)">Dec</text>
<rect class="bar" x="864" y="198" width="3" height="2" fill="#40c463" rx="0.5" ry="0.5"><title>Week of 2024-12-13: 3 commits</title></rect>
<rect class="bar" x="868" y="198" width="3" height="2" fill="#ebedf0" rx="0.5" ry="0.5"><title>Week of 2024-12-20: 0 commits</title></rect>
<rect class="bar" x="872" y="198" width="3" height="2" fill="#ebedf0" rx="0.5" ry="0.5"><title>Week of 2024-12-27: 0 commits</title></rect>
<rect class="bar" x="876" y="198" width="3" height="2" fill="#40c463" rx="0.5" ry="0.5"><title>Week of 2025-01-03: 2 commits</title></rect>
<text x="876" y="240" class="year-label">2025</text>
<line x1="876" y1="50" x2="876" y2="220" stroke="#e1e4e8" stroke-dasharray="2,2" />
<rect class="bar" x="880" y="198" width="3" height="2" fill="#ebedf0" rx="0.5" ry="0.5"><title>Week of 2025-01-10: 0 commits</title></rect>
<rect class="bar" x="884" y="198" width="3" height="2" fill="#40c463" rx="0.5" ry="0.5"><title>Week of 2025-01-17: 4 commits</title></rect>
<rect class="bar" x="888" y="191" width="3" height="9" fill="#40c463" rx="0.5" ry="0.5"><title>Week of 2025-01-24: 29 commits</title></rect>
<rect class="bar" x="892" y="194" width="3" height="6" fill="#40c463" rx="0.5" ry="0.5"><title>Week of 2025-01-31: 20 commits</title></rect>
<rect class="bar" x="896" y="198" width="3" height="2" fill="#40c463" rx="0.5" ry="0.5"><title>Week of 2025-02-07: 8 commits</title></rect>
<text x="896" y="220" class="month-label" transform="rotate(45, 896, 220)">Feb</text>
<rect class="bar" x="900" y="197" width="3" height="3" fill="#40c463" rx="0.5" ry="0.5"><title>Week of 2025-02-14: 12 commits</title></rect>
<rect class="bar" x="904" y="196" width="3" height="4" fill="#40c463" rx="0.5" ry="0.5"><title>Week of 2025-02-21: 15 commits</title></rect>
<rect class="bar" x="908" y="184" width="3" height="16" fill="#40c463" rx="0.5" ry="0.5"><title>Week of 2025-02-28: 53 commits</title></rect>
<rect class="bar" x="912" y="186" width="3" height="14" fill="#40c463" rx="0.5" ry="0.5"><title>Week of 2025-03-07: 45 commits</title></rect>
<text x="912" y="220" class="month-label" transform="rotate(45, 912, 220)">Mar</text>
<rect class="bar" x="916" y="195" width="3" height="5" fill="#40c463" rx="0.5" ry="0.5"><title>Week of 2025-03-14: 19 commits</title></rect>
<rect class="bar" x="920" y="193" width="3" height="7" fill="#40c463" rx="0.5" ry="0.5"><title>Week of 2025-03-21: 23 commits</title></rect>
<rect class="bar" x="924" y="186" width="3" height="14" fill="#40c463" rx="0.5" ry="0.5"><title>Week of 2025-03-28: 46 commits</title></rect>
<rect class="bar" x="928" y="193" width="3" height="7" fill="#40c463" rx="0.5" ry="0.5"><title>Week of 2025-04-04: 25 commits</title></rect>
<text x="928" y="220" class="month-label" transform="rotate(45, 928, 220)">Apr</text>
<rect class="bar" x="932" y="198" width="3" height="2" fill="#40c463" rx="0.5" ry="0.5"><title>Week of 2025-04-11: 5 commits</title></rect>
<rect class="bar" x="936" y="198" width="3" height="2" fill="#ebedf0" rx="0.5" ry="0.5"><title>Week of 2025-04-18: 0 commits</title></rect>
<rect class="bar" x="940" y="198" width="3" height="2" fill="#40c463" rx="0.5" ry="0.5"><title>Week of 2025-04-25: 2 commits</title></rect>
<rect class="bar" x="944" y="198" width="3" height="2" fill="#40c463" rx="0.5" ry="0.5"><title>Week of 2025-05-02: 1 commits</title></rect>
<text x="944" y="220" class="month-label" transform="rotate(45, 944, 220)">May</text>
<rect class="bar" x="948" y="198" width="3" height="2" fill="#ebedf0" rx="0.5" ry="0.5"><title>Week of 2025-05-09: 0 commits</title></rect>
<rect class="bar" x="952" y="198" width="3" height="2" fill="#ebedf0" rx="0.5" ry="0.5"><title>Week of 2025-05-16: 0 commits</title></rect>
<rect class="bar" x="956" y="198" width="3" height="2" fill="#40c463" rx="0.5" ry="0.5"><title>Week of 2025-05-23: 2 commits</title></rect>
<rect class="bar" x="960" y="193" width="3" height="7" fill="#40c463" rx="0.5" ry="0.5"><title>Week of 2025-05-30: 24 commits</title></rect>
<rect class="bar" x="964" y="196" width="3" height="4" fill="#40c463" rx="0.5" ry="0.5"><title>Week of 2025-06-06: 14 commits</title></rect>
<text x="964" y="220" class="month-label" transform="rotate(45, 964, 220)">Jun</text>
<rect class="bar" x="968" y="196" width="3" height="4" fill="#40c463" rx="0.5" ry="0.5"><title>Week of 2025-06-13: 14 commits</title></rect>
<rect class="bar" x="972" y="195" width="3" height="5" fill="#40c463" rx="0.5" ry="0.5"><title>Week of 2025-06-20: 16 commits</title></rect>
<rect class="bar" x="976" y="198" width="3" height="2" fill="#40c463" rx="0.5" ry="0.5"><title>Week of 2025-06-27: 4 commits</title></rect>
<rect class="bar" x="980" y="194" width="3" height="6" fill="#40c463" rx="0.5" ry="0.5"><title>Week of 2025-07-04: 20 commits</title></rect>
<text x="980" y="220" class="month-label" transform="rotate(45, 980, 220)">Jul</text>
<rect class="bar" x="984" y="198" width="3" height="2" fill="#40c463" rx="0.5" ry="0.5"><title>Week of 2025-07-11: 6 commits</title></rect>
<rect class="bar" x="988" y="198" width="3" height="2" fill="#40c463" rx="0.5" ry="0.5"><title>Week of 2025-07-18: 9 commits</title></rect>
<rect class="bar" x="992" y="190" width="3" height="10" fill="#40c463" rx="0.5" ry="0.5"><title>Week of 2025-07-25: 35 commits</title></rect>
<rect class="bar" x="996" y="195" width="3" height="5" fill="#40c463" rx="0.5" ry="0.5"><title>Week of 2025-08-01: 18 commits</title></rect>
<text x="996" y="220" class="month-label" transform="rotate(45, 996, 220)">Aug</text>
<rect class="bar" x="1000" y="198" width="3" height="2" fill="#40c463" rx="0.5" ry="0.5"><title>Week of 2025-08-08: 4 commits</title></rect>
<rect class="bar" x="1004" y="198" width="3" height="2" fill="#40c463" rx="0.5" ry="0.5"><title>Week of 2025-08-15: 5 commits</title></rect>
<rect class="bar" x="1008" y="189" width="3" height="11" fill="#40c463" rx="0.5" ry="0.5"><title>Week of 2025-08-22: 36 commits</title></rect>
<rect class="bar" x="1012" y="198" width="3" height="2" fill="#40c463" rx="0.5" ry="0.5"><title>Week of 2025-08-29: 5 commits</title></rect>
<rect class="bar" x="1016" y="190" width="3" height="10" fill="#40c463" rx="0.5" ry="0.5"><title>Week of 2025-09-05: 34 commits</title></rect>
<text x="1016" y="220" class="month-label" transform="rotate(45, 1016, 220)">Sep</text>
<rect class="bar" x="1020" y="198" width="3" height="2" fill="#40c463" rx="0.5" ry="0.5"><title>Week of 2025-09-12: 5 commits</title></rect>
<rect class="bar" x="1024" y="198" width="3" height="2" fill="#40c463" rx="0.5" ry="0.5"><title>Week of 2025-09-19: 3 commits</title></rect>
<rect class="bar" x="1028" y="198" width="3" height="2" fill="#ebedf0" rx="0.5" ry="0.5"><title>Week of 2025-09-26: 0 commits</title></rect>
<rect class="bar" x="1032" y="195" width="3" height="5" fill="#40c463" rx="0.5" ry="0.5"><title>Week of 2025-10-03: 18 commits</title></rect>
<text x="1032" y="220" class="month-label" transform="rotate(45, 1032, 220)">Oct</text>
<rect class="bar" x="1036" y="188" width="3" height="12" fill="#40c463" rx="0.5" ry="0.5"><title>Week of 2025-10-10: 39 commits</title></rect>
<rect class="bar" x="1040" y="191" width="3" height="9" fill="#40c463" rx="0.5" ry="0.5"><title>Week of 2025-10-17: 29 commits</title></rect>
<rect class="bar" x="1044" y="197" width="3" height="3" fill="#40c463" rx="0.5" ry="0.5"><title>Week of 2025-10-24: 12 commits</title></rect>
<rect class="bar" x="1048" y="194" width="3" height="6" fill="#40c463" rx="0.5" ry="0.5"><title>Week of 2025-10-31: 22 commits</title></rect>
<rect class="bar" x="1052" y="197" width="3" height="3" fill="#40c463" rx="0.5" ry="0.5"><title>Week of 2025-11-07: 12 commits</title></rect>
<text x="1052" y="220" class="month-label" transform="rotate(45, 1052, 220)">Nov</text>
<rect class="bar" x="1056" y="195" width="3" height="5" fill="#40c463" rx="0.5" ry="0.5"><title>Week of 2025-11-14: 17 commits</title></rect>
<rect class="bar" x="1060" y="189" width="3" height="11" fill="#40c463" rx="0.5" ry="0.5"><title>Week of 2025-11-21: 37 commits</title></rect>
<rect class="bar" x="1064" y="198" width="3" height="2" fill="#40c463" rx="0.5" ry="0.5"><title>Week of 2025-11-28: 2 commits</title></rect>
<rect class="bar" x="1068" y="190" width="3" height="10" fill="#40c463" rx="0.5" ry="0.5"><title>Week of 2025-12-05: 33 commits</title></rect>
<text x="1068" y="220" class="month-label" transform="rotate(45, 1068, 220)">Dec</text>
<rect class="bar" x="1072" y="180" width="3" height="20" fill="#40c463" rx="0.5" ry="0.5"><title>Week of 2025-12-12: 67 commits</title></rect>
<rect class="bar" x="1076" y="171" width="3" height="29" fill="#40c463" rx="0.5" ry="0.5"><title>Week of 2025-12-19: 93 commits</title></rect>
<rect class="bar" x="1080" y="182" width="3" height="18" fill="#40c463" rx="0.5" ry="0.5"><title>Week of 2025-12-26: 60 commits</title></rect>
<rect class="bar" x="1084" y="194" width="3" height="6" fill="#40c463" rx="0.5" ry="0.5"><title>Week of 2026-01-02: 22 commits</title></rect>
<text x="1084" y="240" class="year-label">2026</text>
<line x1="1084" y1="50" x2="1084" y2="220" stroke="#e1e4e8" stroke-dasharray="2,2" />
<rect class="bar" x="1088" y="193" width="3" height="7" fill="#40c463" rx="0.5" ry="0.5"><title>Week of 2026-01-09: 23 commits</title></rect>
<rect class="bar" x="1092" y="189" width="3" height="11" fill="#40c463" rx="0.5" ry="0.5"><title>Week of 2026-01-16: 38 commits</title></rect>
<rect class="bar" x="1096" y="168" width="3" height="32" fill="#40c463" rx="0.5" ry="0.5"><title>Week of 2026-01-23: 105 commits</title></rect>
<rect class="bar" x="1100" y="167" width="3" height="33" fill="#40c463" rx="0.5" ry="0.5"><title>Week of 2026-01-30: 107 commits</title></rect>
<rect class="bar" x="1104" y="180" width="3" height="20" fill="#40c463" rx="0.5" ry="0.5"><title>Week of 2026-02-06: 64 commits</title></rect>
<text x="1104" y="220" class="month-label" transform="rotate(45, 1104, 220)">Feb</text>
<rect class="bar" x="1108" y="190" width="3" height="10" fill="#40c463" rx="0.5" ry="0.5"><title>Week of 2026-02-13: 32 commits</title></rect>
<rect class="bar" x="1112" y="191" width="3" height="9" fill="#40c463" rx="0.5" ry="0.5"><title>Week of 2026-02-20: 31 commits</title></rect>
<rect class="bar" x="1116" y="177" width="3" height="23" fill="#40c463" rx="0.5" ry="0.5"><title>Week of 2026-02-27: 75 commits</title></rect>
<rect class="bar" x="1120" y="169" width="3" height="31" fill="#40c463" rx="0.5" ry="0.5"><title>Week of 2026-03-06: 100 commits</title></rect>
<text x="1120" y="220" class="month-label" transform="rotate(45, 1120, 220)">Mar</text>
<rect class="bar" x="1124" y="165" width="3" height="35" fill="#40c463" rx="0.5" ry="0.5"><title>Week of 2026-03-13: 114 commits</title></rect>
<rect class="bar" x="1128" y="144" width="3" height="56" fill="#40c463" rx="0.5" ry="0.5"><title>Week of 2026-03-20: 182 commits</title></rect>
<rect class="bar" x="1132" y="105" width="3" height="95" fill="#40c463" rx="0.5" ry="0.5"><title>Week of 2026-03-27: 305 commits</title></rect>
<rect class="bar" x="1136" y="50" width="3" height="150" fill="#40c463" rx="0.5" ry="0.5"><title>Week of 2026-04-03: 479 commits</title></rect>
<text x="1136" y="220" class="month-label" transform="rotate(45, 1136, 220)">Apr</text>
<rect class="bar" x="1140" y="133" width="3" height="67" fill="#40c463" rx="0.5" ry="0.5"><title>Week of 2026-04-10: 214 commits</title></rect>
<rect class="bar" x="1144" y="133" width="3" height="67" fill="#40c463" rx="0.5" ry="0.5"><title>Week of 2026-04-17: 217 commits</title></rect>
<rect class="bar" x="1148" y="185" width="3" height="15" fill="#40c463" rx="0.5" ry="0.5"><title>Week of 2026-04-24: 48 commits</title></rect>
</svg>