<svg width="800" height="150" viewBox="0 0 800 150" xmlns="http://www.w3.org/2000/svg">
<style>text { font-family: -apple-system, BlinkMacSystemFont, "Segoe UI", Helvetica, Arial, sans-serif; font-size: 10px; fill: #767676; }</style>
<text x="10" y="18" style="font-size: 12px; font-weight: bold; fill: #24292e;">KathiraveluLab Activity (Last 12 Months)</text>
<text x="5" y="53">Mon</text>
<text x="5" y="81">Wed</text>
<text x="5" y="109">Fri</text>
<rect x="40" y="30" width="11" height="11" fill="#ebedf0" rx="2" ry="2"><title>0 commits</title></rect>
<rect x="40" y="44" width="11" height="11" fill="#ebedf0" rx="2" ry="2"><title>0 commits</title></rect>
<rect x="40" y="58" width="11" height="11" fill="#ebedf0" rx="2" ry="2"><title>0 commits</title></rect>
<rect x="40" y="72" width="11" height="11" fill="#ebedf0" rx="2" ry="2"><title>0 commits</title></rect>
<rect x="40" y="86" width="11" height="11" fill="#ebedf0" rx="2" ry="2"><title>0 commits</title></rect>
<rect x="40" y="100" width="11" height="11" fill="#ebedf0" rx="2" ry="2"><title>0 commits</title></rect>
<rect x="40" y="114" width="11" height="11" fill="#ebedf0" rx="2" ry="2"><title>0 commits</title></rect>
<rect x="54" y="30" width="11" height="11" fill="#ebedf0" rx="2" ry="2"><title>0 commits</title></rect>
<rect x="54" y="44" width="11" height="11" fill="#ebedf0" rx="2" ry="2"><title>0 commits</title></rect>
<rect x="54" y="58" width="11" height="11" fill="#ebedf0" rx="2" ry="2"><title>0 commits</title></rect>
<rect x="54" y="72" width="11" height="11" fill="#ebedf0" rx="2" ry="2"><title>0 commits</title></rect>
<rect x="54" y="86" width="11" height="11" fill="#ebedf0" rx="2" ry="2"><title>0 commits</title></rect>
<rect x="54" y="100" width="11" height="11" fill="#ebedf0" rx="2" ry="2"><title>0 commits</title></rect>
<rect x="54" y="114" width="11" height="11" fill="#ebedf0" rx="2" ry="2"><title>0 commits</title></rect>
<rect x="68" y="30" width="11" height="11" fill="#ebedf0" rx="2" ry="2"><title>0 commits</title></rect>
<rect x="68" y="44" width="11" height="11" fill="#ebedf0" rx="2" ry="2"><title>0 commits</title></rect>
<rect x="68" y="58" width="11" height="11" fill="#9be9a8" rx="2" ry="2"><title>1 commits</title></rect>
<rect x="68" y="72" width="11" height="11" fill="#ebedf0" rx="2" ry="2"><title>0 commits</title></rect>
<rect x="68" y="86" width="11" height="11" fill="#ebedf0" rx="2" ry="2"><title>0 commits</title></rect>
<rect x="68" y="100" width="11" height="11" fill="#ebedf0" rx="2" ry="2"><title>0 commits</title></rect>
<rect x="68" y="114" width="11" height="11" fill="#ebedf0" rx="2" ry="2"><title>0 commits</title></rect>
<rect x="82" y="30" width="11" height="11" fill="#ebedf0" rx="2" ry="2"><title>0 commits</title></rect>
<rect x="82" y="44" width="11" height="11" fill="#ebedf0" rx="2" ry="2"><title>0 commits</title></rect>
<rect x="82" y="58" width="11" height="11" fill="#ebedf0" rx="2" ry="2"><title>0 commits</title></rect>
<rect x="82" y="72" width="11" height="11" fill="#ebedf0" rx="2" ry="2"><title>0 commits</title></rect>
<rect x="82" y="86" width="11" height="11" fill="#ebedf0" rx="2" ry="2"><title>0 commits</title></rect>
<rect x="82" y="100" width="11" height="11" fill="#ebedf0" rx="2" ry="2"><title>0 commits</title></rect>
<rect x="82" y="114" width="11" height="11" fill="#ebedf0" rx="2" ry="2"><title>0 commits</title></rect>
<rect x="96" y="30" width="11" height="11" fill="#ebedf0" rx="2" ry="2"><title>0 commits</title></rect>
<rect x="96" y="44" width="11" height="11" fill="#ebedf0" rx="2" ry="2"><title>0 commits</title></rect>
<rect x="96" y="58" width="11" height="11" fill="#9be9a8" rx="2" ry="2"><title>2 commits</title></rect>
<rect x="96" y="72" width="11" height="11" fill="#ebedf0" rx="2" ry="2"><title>0 commits</title></rect>
<rect x="96" y="86" width="11" height="11" fill="#ebedf0" rx="2" ry="2"><title>0 commits</title></rect>
<rect x="96" y="100" width="11" height="11" fill="#ebedf0" rx="2" ry="2"><title>0 commits</title></rect>
<rect x="96" y="114" width="11" height="11" fill="#ebedf0" rx="2" ry="2"><title>0 commits</title></rect>
<rect x="110" y="30" width="11" height="11" fill="#ebedf0" rx="2" ry="2"><title>0 commits</title></rect>
<rect x="110" y="44" width="11" height="11" fill="#ebedf0" rx="2" ry="2"><title>0 commits</title></rect>
<rect x="110" y="58" width="11" height="11" fill="#ebedf0" rx="2" ry="2"><title>0 commits</title></rect>
<rect x="110" y="72" width="11" height="11" fill="#ebedf0" rx="2" ry="2"><title>0 commits</title></rect>
<rect x="110" y="86" width="11" height="11" fill="#ebedf0" rx="2" ry="2"><title>0 commits</title></rect>
<rect x="110" y="100" width="11" height="11" fill="#ebedf0" rx="2" ry="2"><title>0 commits</title></rect>
<rect x="110" y="114" width="11" height="11" fill="#ebedf0" rx="2" ry="2"><title>0 commits</title></rect>
<rect x="124" y="30" width="11" height="11" fill="#ebedf0" rx="2" ry="2"><title>0 commits</title></rect>
<rect x="124" y="44" width="11" height="11" fill="#ebedf0" rx="2" ry="2"><title>0 commits</title></rect>
<rect x="124" y="58" width="11" height="11" fill="#9be9a8" rx="2" ry="2"><title>25 commits</title></rect>
<rect x="124" y="72" width="11" height="11" fill="#ebedf0" rx="2" ry="2"><title>0 commits</title></rect>
<rect x="124" y="86" width="11" height="11" fill="#ebedf0" rx="2" ry="2"><title>0 commits</title></rect>
<rect x="124" y="100" width="11" height="11" fill="#ebedf0" rx="2" ry="2"><title>0 commits</title></rect>
<rect x="124" y="114" width="11" height="11" fill="#ebedf0" rx="2" ry="2"><title>0 commits</title></rect>
<rect x="138" y="30" width="11" height="11" fill="#ebedf0" rx="2" ry="2"><title>0 commits</title></rect>
<rect x="138" y="44" width="11" height="11" fill="#ebedf0" rx="2" ry="2"><title>0 commits</title></rect>
<rect x="138" y="58" width="11" height="11" fill="#9be9a8" rx="2" ry="2"><title>19 commits</title></rect>
<rect x="138" y="72" width="11" height="11" fill="#ebedf0" rx="2" ry="2"><title>0 commits</title></rect>
<rect x="138" y="86" width="11" height="11" fill="#ebedf0" rx="2" ry="2"><title>0 commits</title></rect>
<rect x="138" y="100" width="11" height="11" fill="#ebedf0" rx="2" ry="2"><title>0 commits</title></rect>
<rect x="138" y="114" width="11" height="11" fill="#ebedf0" rx="2" ry="2"><title>0 commits</title></rect>
<rect x="152" y="30" width="11" height="11" fill="#ebedf0" rx="2" ry="2"><title>0 commits</title></rect>
<rect x="152" y="44" width="11" height="11" fill="#ebedf0" rx="2" ry="2"><title>0 commits</title></rect>
<rect x="152" y="58" width="11" height="11" fill="#9be9a8" rx="2" ry="2"><title>9 commits</title></rect>
<rect x="152" y="72" width="11" height="11" fill="#ebedf0" rx="2" ry="2"><title>0 commits</title></rect>
<rect x="152" y="86" width="11" height="11" fill="#ebedf0" rx="2" ry="2"><title>0 commits</title></rect>
<rect x="152" y="100" width="11" height="11" fill="#ebedf0" rx="2" ry="2"><title>0 commits</title></rect>
<rect x="152" y="114" width="11" height="11" fill="#ebedf0" rx="2" ry="2"><title>0 commits</title></rect>
<rect x="166" y="30" width="11" height="11" fill="#ebedf0" rx="2" ry="2"><title>0 commits</title></rect>
<rect x="166" y="44" width="11" height="11" fill="#ebedf0" rx="2" ry="2"><title>0 commits</title></rect>
<rect x="166" y="58" width="11" height="11" fill="#9be9a8" rx="2" ry="2"><title>15 commits</title></rect>
<rect x="166" y="72" width="11" height="11" fill="#ebedf0" rx="2" ry="2"><title>0 commits</title></rect>
<rect x="166" y="86" width="11" height="11" fill="#ebedf0" rx="2" ry="2"><title>0 commits</title></rect>
<rect x="166" y="100" width="11" height="11" fill="#ebedf0" rx="2" ry="2"><title>0 commits</title></rect>
<rect x="166" y="114" width="11" height="11" fill="#ebedf0" rx="2" ry="2"><title>0 commits</title></rect>
<rect x="180" y="30" width="11" height="11" fill="#ebedf0" rx="2" ry="2"><title>0 commits</title></rect>
<rect x="180" y="44" width="11" height="11" fill="#ebedf0" rx="2" ry="2"><title>0 commits</title></rect>
<rect x="180" y="58" width="11" height="11" fill="#9be9a8" rx="2" ry="2"><title>4 commits</title></rect>
<rect x="180" y="72" width="11" height="11" fill="#ebedf0" rx="2" ry="2"><title>0 commits</title></rect>
<rect x="180" y="86" width="11" height="11" fill="#ebedf0" rx="2" ry="2"><title>0 commits</title></rect>
<rect x="180" y="100" width="11" height="11" fill="#ebedf0" rx="2" ry="2"><title>0 commits</title></rect>
<rect x="180" y="114" width="11" height="11" fill="#ebedf0" rx="2" ry="2"><title>0 commits</title></rect>
<rect x="194" y="30" width="11" height="11" fill="#ebedf0" rx="2" ry="2"><title>0 commits</title></rect>
<rect x="194" y="44" width="11" height="11" fill="#ebedf0" rx="2" ry="2"><title>0 commits</title></rect>
<rect x="194" y="58" width="11" height="11" fill="#9be9a8" rx="2" ry="2"><title>20 commits</title></rect>
<rect x="194" y="72" width="11" height="11" fill="#ebedf0" rx="2" ry="2"><title>0 commits</title></rect>
<rect x="194" y="86" width="11" height="11" fill="#ebedf0" rx="2" ry="2"><title>0 commits</title></rect>
<rect x="194" y="100" width="11" height="11" fill="#ebedf0" rx="2" ry="2"><title>0 commits</title></rect>
<rect x="194" y="114" width="11" height="11" fill="#ebedf0" rx="2" ry="2"><title>0 commits</title></rect>
<rect x="208" y="30" width="11" height="11" fill="#ebedf0" rx="2" ry="2"><title>0 commits</title></rect>
<rect x="208" y="44" width="11" height="11" fill="#ebedf0" rx="2" ry="2"><title>0 commits</title></rect>
<rect x="208" y="58" width="11" height="11" fill="#9be9a8" rx="2" ry="2"><title>11 commits</title></rect>
<rect x="208" y="72" width="11" height="11" fill="#ebedf0" rx="2" ry="2"><title>0 commits</title></rect>
<rect x="208" y="86" width="11" height="11" fill="#ebedf0" rx="2" ry="2"><title>0 commits</title></rect>
<rect x="208" y="100" width="11" height="11" fill="#ebedf0" rx="2" ry="2"><title>0 commits</title></rect>
<rect x="208" y="114" width="11" height="11" fill="#ebedf0" rx="2" ry="2"><title>0 commits</title></rect>
<rect x="222" y="30" width="11" height="11" fill="#ebedf0" rx="2" ry="2"><title>0 commits</title></rect>
<rect x="222" y="44" width="11" height="11" fill="#ebedf0" rx="2" ry="2"><title>0 commits</title></rect>
<rect x="222" y="58" width="11" height="11" fill="#9be9a8" rx="2" ry="2"><title>20 commits</title></rect>
<rect x="222" y="72" width="11" height="11" fill="#ebedf0" rx="2" ry="2"><title>0 commits</title></rect>
<rect x="222" y="86" width="11" height="11" fill="#9be9a8" rx="2" ry="2"><title>1 commits</title></rect>
<rect x="222" y="100" width="11" height="11" fill="#ebedf0" rx="2" ry="2"><title>0 commits</title></rect>
<rect x="222" y="114" width="11" height="11" fill="#ebedf0" rx="2" ry="2"><title>0 commits</title></rect>
<rect x="236" y="30" width="11" height="11" fill="#ebedf0" rx="2" ry="2"><title>0 commits</title></rect>
<rect x="236" y="44" width="11" height="11" fill="#ebedf0" rx="2" ry="2"><title>0 commits</title></rect>
<rect x="236" y="58" width="11" height="11" fill="#9be9a8" rx="2" ry="2"><title>30 commits</title></rect>
<rect x="236" y="72" width="11" height="11" fill="#ebedf0" rx="2" ry="2"><title>0 commits</title></rect>
<rect x="236" y="86" width="11" height="11" fill="#ebedf0" rx="2" ry="2"><title>0 commits</title></rect>
<rect x="236" y="100" width="11" height="11" fill="#ebedf0" rx="2" ry="2"><title>0 commits</title></rect>
<rect x="236" y="114" width="11" height="11" fill="#ebedf0" rx="2" ry="2"><title>0 commits</title></rect>
<rect x="250" y="30" width="11" height="11" fill="#ebedf0" rx="2" ry="2"><title>0 commits</title></rect>
<rect x="250" y="44" width="11" height="11" fill="#ebedf0" rx="2" ry="2"><title>0 commits</title></rect>
<rect x="250" y="58" width="11" height="11" fill="#9be9a8" rx="2" ry="2"><title>8 commits</title></rect>
<rect x="250" y="72" width="11" height="11" fill="#ebedf0" rx="2" ry="2"><title>0 commits</title></rect>
<rect x="250" y="86" width="11" height="11" fill="#ebedf0" rx="2" ry="2"><title>0 commits</title></rect>
<rect x="250" y="100" width="11" height="11" fill="#ebedf0" rx="2" ry="2"><title>0 commits</title></rect>
<rect x="250" y="114" width="11" height="11" fill="#ebedf0" rx="2" ry="2"><title>0 commits</title></rect>
<rect x="264" y="30" width="11" height="11" fill="#ebedf0" rx="2" ry="2"><title>0 commits</title></rect>
<rect x="264" y="44" width="11" height="11" fill="#ebedf0" rx="2" ry="2"><title>0 commits</title></rect>
<rect x="264" y="58" width="11" height="11" fill="#9be9a8" rx="2" ry="2"><title>2 commits</title></rect>
<rect x="264" y="72" width="11" height="11" fill="#ebedf0" rx="2" ry="2"><title>0 commits</title></rect>
<rect x="264" y="86" width="11" height="11" fill="#ebedf0" rx="2" ry="2"><title>0 commits</title></rect>
<rect x="264" y="100" width="11" height="11" fill="#ebedf0" rx="2" ry="2"><title>0 commits</title></rect>
<rect x="264" y="114" width="11" height="11" fill="#ebedf0" rx="2" ry="2"><title>0 commits</title></rect>
<rect x="278" y="30" width="11" height="11" fill="#ebedf0" rx="2" ry="2"><title>0 commits</title></rect>
<rect x="278" y="44" width="11" height="11" fill="#9be9a8" rx="2" ry="2"><title>11 commits</title></rect>
<rect x="278" y="58" width="11" height="11" fill="#9be9a8" rx="2" ry="2"><title>17 commits</title></rect>
<rect x="278" y="72" width="11" height="11" fill="#ebedf0" rx="2" ry="2"><title>0 commits</title></rect>
<rect x="278" y="86" width="11" height="11" fill="#ebedf0" rx="2" ry="2"><title>0 commits</title></rect>
<rect x="278" y="100" width="11" height="11" fill="#ebedf0" rx="2" ry="2"><title>0 commits</title></rect>
<rect x="278" y="114" width="11" height="11" fill="#ebedf0" rx="2" ry="2"><title>0 commits</title></rect>
<rect x="292" y="30" width="11" height="11" fill="#ebedf0" rx="2" ry="2"><title>0 commits</title></rect>
<rect x="292" y="44" width="11" height="11" fill="#ebedf0" rx="2" ry="2"><title>0 commits</title></rect>
<rect x="292" y="58" width="11" height="11" fill="#9be9a8" rx="2" ry="2"><title>12 commits</title></rect>
<rect x="292" y="72" width="11" height="11" fill="#ebedf0" rx="2" ry="2"><title>0 commits</title></rect>
<rect x="292" y="86" width="11" height="11" fill="#ebedf0" rx="2" ry="2"><title>0 commits</title></rect>
<rect x="292" y="100" width="11" height="11" fill="#ebedf0" rx="2" ry="2"><title>0 commits</title></rect>
<rect x="292" y="114" width="11" height="11" fill="#ebedf0" rx="2" ry="2"><title>0 commits</title></rect>
<rect x="306" y="30" width="11" height="11" fill="#ebedf0" rx="2" ry="2"><title>0 commits</title></rect>
<rect x="306" y="44" width="11" height="11" fill="#ebedf0" rx="2" ry="2"><title>0 commits</title></rect>
<rect x="306" y="58" width="11" height="11" fill="#9be9a8" rx="2" ry="2"><title>19 commits</title></rect>
<rect x="306" y="72" width="11" height="11" fill="#ebedf0" rx="2" ry="2"><title>0 commits</title></rect>
<rect x="306" y="86" width="11" height="11" fill="#ebedf0" rx="2" ry="2"><title>0 commits</title></rect>
<rect x="306" y="100" width="11" height="11" fill="#ebedf0" rx="2" ry="2"><title>0 commits</title></rect>
<rect x="306" y="114" width="11" height="11" fill="#ebedf0" rx="2" ry="2"><title>0 commits</title></rect>
<rect x="320" y="30" width="11" height="11" fill="#ebedf0" rx="2" ry="2"><title>0 commits</title></rect>
<rect x="320" y="44" width="11" height="11" fill="#ebedf0" rx="2" ry="2"><title>0 commits</title></rect>
<rect x="320" y="58" width="11" height="11" fill="#9be9a8" rx="2" ry="2"><title>20 commits</title></rect>
<rect x="320" y="72" width="11" height="11" fill="#ebedf0" rx="2" ry="2"><title>0 commits</title></rect>
<rect x="320" y="86" width="11" height="11" fill="#ebedf0" rx="2" ry="2"><title>0 commits</title></rect>
<rect x="320" y="100" width="11" height="11" fill="#ebedf0" rx="2" ry="2"><title>0 commits</title></rect>
<rect x="320" y="114" width="11" height="11" fill="#ebedf0" rx="2" ry="2"><title>0 commits</title></rect>
<rect x="334" y="30" width="11" height="11" fill="#ebedf0" rx="2" ry="2"><title>0 commits</title></rect>
<rect x="334" y="44" width="11" height="11" fill="#ebedf0" rx="2" ry="2"><title>0 commits</title></rect>
<rect x="334" y="58" width="11" height="11" fill="#9be9a8" rx="2" ry="2"><title>6 commits</title></rect>
<rect x="334" y="72" width="11" height="11" fill="#ebedf0" rx="2" ry="2"><title>0 commits</title></rect>
<rect x="334" y="86" width="11" height="11" fill="#ebedf0" rx="2" ry="2"><title>0 commits</title></rect>
<rect x="334" y="100" width="11" height="11" fill="#ebedf0" rx="2" ry="2"><title>0 commits</title></rect>
<rect x="334" y="114" width="11" height="11" fill="#ebedf0" rx="2" ry="2"><title>0 commits</title></rect>
<rect x="348" y="30" width="11" height="11" fill="#ebedf0" rx="2" ry="2"><title>0 commits</title></rect>
<rect x="348" y="44" width="11" height="11" fill="#ebedf0" rx="2" ry="2"><title>0 commits</title></rect>
<rect x="348" y="58" width="11" height="11" fill="#9be9a8" rx="2" ry="2"><title>2 commits</title></rect>
<rect x="348" y="72" width="11" height="11" fill="#ebedf0" rx="2" ry="2"><title>0 commits</title></rect>
<rect x="348" y="86" width="11" height="11" fill="#ebedf0" rx="2" ry="2"><title>0 commits</title></rect>
<rect x="348" y="100" width="11" height="11" fill="#ebedf0" rx="2" ry="2"><title>0 commits</title></rect>
<rect x="348" y="114" width="11" height="11" fill="#ebedf0" rx="2" ry="2"><title>0 commits</title></rect>
<rect x="362" y="30" width="11" height="11" fill="#ebedf0" rx="2" ry="2"><title>0 commits</title></rect>
<rect x="362" y="44" width="11" height="11" fill="#ebedf0" rx="2" ry="2"><title>0 commits</title></rect>
<rect x="362" y="58" width="11" height="11" fill="#ebedf0" rx="2" ry="2"><title>0 commits</title></rect>
<rect x="362" y="72" width="11" height="11" fill="#ebedf0" rx="2" ry="2"><title>0 commits</title></rect>
<rect x="362" y="86" width="11" height="11" fill="#ebedf0" rx="2" ry="2"><title>0 commits</title></rect>
<rect x="362" y="100" width="11" height="11" fill="#ebedf0" rx="2" ry="2"><title>0 commits</title></rect>
<rect x="362" y="114" width="11" height="11" fill="#ebedf0" rx="2" ry="2"><title>0 commits</title></rect>
<rect x="376" y="30" width="11" height="11" fill="#ebedf0" rx="2" ry="2"><title>0 commits</title></rect>
<rect x="376" y="44" width="11" height="11" fill="#ebedf0" rx="2" ry="2"><title>0 commits</title></rect>
<rect x="376" y="58" width="11" height="11" fill="#9be9a8" rx="2" ry="2"><title>48 commits</title></rect>
<rect x="376" y="72" width="11" height="11" fill="#ebedf0" rx="2" ry="2"><title>0 commits</title></rect>
<rect x="376" y="86" width="11" height="11" fill="#ebedf0" rx="2" ry="2"><title>0 commits</title></rect>
<rect x="376" y="100" width="11" height="11" fill="#ebedf0" rx="2" ry="2"><title>0 commits</title></rect>
<rect x="376" y="114" width="11" height="11" fill="#ebedf0" rx="2" ry="2"><title>0 commits</title></rect>
<rect x="390" y="30" width="11" height="11" fill="#ebedf0" rx="2" ry="2"><title>0 commits</title></rect>
<rect x="390" y="44" width="11" height="11" fill="#ebedf0" rx="2" ry="2"><title>0 commits</title></rect>
<rect x="390" y="58" width="11" height="11" fill="#9be9a8" rx="2" ry="2"><title>23 commits</title></rect>
<rect x="390" y="72" width="11" height="11" fill="#ebedf0" rx="2" ry="2"><title>0 commits</title></rect>
<rect x="390" y="86" width="11" height="11" fill="#ebedf0" rx="2" ry="2"><title>0 commits</title></rect>
<rect x="390" y="100" width="11" height="11" fill="#ebedf0" rx="2" ry="2"><title>0 commits</title></rect>
<rect x="390" y="114" width="11" height="11" fill="#ebedf0" rx="2" ry="2"><title>0 commits</title></rect>
<rect x="404" y="30" width="11" height="11" fill="#ebedf0" rx="2" ry="2"><title>0 commits</title></rect>
<rect x="404" y="44" width="11" height="11" fill="#ebedf0" rx="2" ry="2"><title>0 commits</title></rect>
<rect x="404" y="58" width="11" height="11" fill="#9be9a8" rx="2" ry="2"><title>17 commits</title></rect>
<rect x="404" y="72" width="11" height="11" fill="#ebedf0" rx="2" ry="2"><title>0 commits</title></rect>
<rect x="404" y="86" width="11" height="11" fill="#ebedf0" rx="2" ry="2"><title>0 commits</title></rect>
<rect x="404" y="100" width="11" height="11" fill="#ebedf0" rx="2" ry="2"><title>0 commits</title></rect>
<rect x="404" y="114" width="11" height="11" fill="#ebedf0" rx="2" ry="2"><title>0 commits</title></rect>
<rect x="418" y="30" width="11" height="11" fill="#ebedf0" rx="2" ry="2"><title>0 commits</title></rect>
<rect x="418" y="44" width="11" height="11" fill="#ebedf0" rx="2" ry="2"><title>0 commits</title></rect>
<rect x="418" y="58" width="11" height="11" fill="#9be9a8" rx="2" ry="2"><title>11 commits</title></rect>
<rect x="418" y="72" width="11" height="11" fill="#ebedf0" rx="2" ry="2"><title>0 commits</title></rect>
<rect x="418" y="86" width="11" height="11" fill="#ebedf0" rx="2" ry="2"><title>0 commits</title></rect>
<rect x="418" y="100" width="11" height="11" fill="#ebedf0" rx="2" ry="2"><title>0 commits</title></rect>
<rect x="418" y="114" width="11" height="11" fill="#ebedf0" rx="2" ry="2"><title>0 commits</title></rect>
<rect x="432" y="30" width="11" height="11" fill="#ebedf0" rx="2" ry="2"><title>0 commits</title></rect>
<rect x="432" y="44" width="11" height="11" fill="#ebedf0" rx="2" ry="2"><title>0 commits</title></rect>
<rect x="432" y="58" width="11" height="11" fill="#9be9a8" rx="2" ry="2"><title>30 commits</title></rect>
<rect x="432" y="72" width="11" height="11" fill="#ebedf0" rx="2" ry="2"><title>0 commits</title></rect>
<rect x="432" y="86" width="11" height="11" fill="#ebedf0" rx="2" ry="2"><title>0 commits</title></rect>
<rect x="432" y="100" width="11" height="11" fill="#ebedf0" rx="2" ry="2"><title>0 commits</title></rect>
<rect x="432" y="114" width="11" height="11" fill="#ebedf0" rx="2" ry="2"><title>0 commits</title></rect>
<rect x="446" y="30" width="11" height="11" fill="#ebedf0" rx="2" ry="2"><title>0 commits</title></rect>
<rect x="446" y="44" width="11" height="11" fill="#ebedf0" rx="2" ry="2"><title>0 commits</title></rect>
<rect x="446" y="58" width="11" height="11" fill="#9be9a8" rx="2" ry="2"><title>11 commits</title></rect>
<rect x="446" y="72" width="11" height="11" fill="#ebedf0" rx="2" ry="2"><title>0 commits</title></rect>
<rect x="446" y="86" width="11" height="11" fill="#ebedf0" rx="2" ry="2"><title>0 commits</title></rect>
<rect x="446" y="100" width="11" height="11" fill="#ebedf0" rx="2" ry="2"><title>0 commits</title></rect>
<rect x="446" y="114" width="11" height="11" fill="#ebedf0" rx="2" ry="2"><title>0 commits</title></rect>
<rect x="460" y="30" width="11" height="11" fill="#ebedf0" rx="2" ry="2"><title>0 commits</title></rect>
<rect x="460" y="44" width="11" height="11" fill="#ebedf0" rx="2" ry="2"><title>0 commits</title></rect>
<rect x="460" y="58" width="11" height="11" fill="#9be9a8" rx="2" ry="2"><title>19 commits</title></rect>
<rect x="460" y="72" width="11" height="11" fill="#ebedf0" rx="2" ry="2"><title>0 commits</title></rect>
<rect x="460" y="86" width="11" height="11" fill="#9be9a8" rx="2" ry="2"><title>1 commits</title></rect>
<rect x="460" y="100" width="11" height="11" fill="#ebedf0" rx="2" ry="2"><title>0 commits</title></rect>
<rect x="460" y="114" width="11" height="11" fill="#ebedf0" rx="2" ry="2"><title>0 commits</title></rect>
<rect x="474" y="30" width="11" height="11" fill="#ebedf0" rx="2" ry="2"><title>0 commits</title></rect>
<rect x="474" y="44" width="11" height="11" fill="#ebedf0" rx="2" ry="2"><title>0 commits</title></rect>
<rect x="474" y="58" width="11" height="11" fill="#9be9a8" rx="2" ry="2"><title>25 commits</title></rect>
<rect x="474" y="72" width="11" height="11" fill="#ebedf0" rx="2" ry="2"><title>0 commits</title></rect>
<rect x="474" y="86" width="11" height="11" fill="#ebedf0" rx="2" ry="2"><title>0 commits</title></rect>
<rect x="474" y="100" width="11" height="11" fill="#ebedf0" rx="2" ry="2"><title>0 commits</title></rect>
<rect x="474" y="114" width="11" height="11" fill="#ebedf0" rx="2" ry="2"><title>0 commits</title></rect>
<rect x="488" y="30" width="11" height="11" fill="#ebedf0" rx="2" ry="2"><title>0 commits</title></rect>
<rect x="488" y="44" width="11" height="11" fill="#ebedf0" rx="2" ry="2"><title>0 commits</title></rect>
<rect x="488" y="58" width="11" height="11" fill="#9be9a8" rx="2" ry="2"><title>11 commits</title></rect>
<rect x="488" y="72" width="11" height="11" fill="#ebedf0" rx="2" ry="2"><title>0 commits</title></rect>
<rect x="488" y="86" width="11" height="11" fill="#ebedf0" rx="2" ry="2"><title>0 commits</title></rect>
<rect x="488" y="100" width="11" height="11" fill="#ebedf0" rx="2" ry="2"><title>0 commits</title></rect>
<rect x="488" y="114" width="11" height="11" fill="#ebedf0" rx="2" ry="2"><title>0 commits</title></rect>
<rect x="502" y="30" width="11" height="11" fill="#ebedf0" rx="2" ry="2"><title>0 commits</title></rect>
<rect x="502" y="44" width="11" height="11" fill="#ebedf0" rx="2" ry="2"><title>0 commits</title></rect>
<rect x="502" y="58" width="11" height="11" fill="#9be9a8" rx="2" ry="2"><title>63 commits</title></rect>
<rect x="502" y="72" width="11" height="11" fill="#ebedf0" rx="2" ry="2"><title>0 commits</title></rect>
<rect x="502" y="86" width="11" height="11" fill="#ebedf0" rx="2" ry="2"><title>0 commits</title></rect>
<rect x="502" y="100" width="11" height="11" fill="#ebedf0" rx="2" ry="2"><title>0 commits</title></rect>
<rect x="502" y="114" width="11" height="11" fill="#ebedf0" rx="2" ry="2"><title>0 commits</title></rect>
<rect x="516" y="30" width="11" height="11" fill="#ebedf0" rx="2" ry="2"><title>0 commits</title></rect>
<rect x="516" y="44" width="11" height="11" fill="#ebedf0" rx="2" ry="2"><title>0 commits</title></rect>
<rect x="516" y="58" width="11" height="11" fill="#9be9a8" rx="2" ry="2"><title>82 commits</title></rect>
<rect x="516" y="72" width="11" height="11" fill="#ebedf0" rx="2" ry="2"><title>0 commits</title></rect>
<rect x="516" y="86" width="11" height="11" fill="#ebedf0" rx="2" ry="2"><title>0 commits</title></rect>
<rect x="516" y="100" width="11" height="11" fill="#ebedf0" rx="2" ry="2"><title>0 commits</title></rect>
<rect x="516" y="114" width="11" height="11" fill="#ebedf0" rx="2" ry="2"><title>0 commits</title></rect>
<rect x="530" y="30" width="11" height="11" fill="#ebedf0" rx="2" ry="2"><title>0 commits</title></rect>
<rect x="530" y="44" width="11" height="11" fill="#ebedf0" rx="2" ry="2"><title>0 commits</title></rect>
<rect x="530" y="58" width="11" height="11" fill="#9be9a8" rx="2" ry="2"><title>62 commits</title></rect>
<rect x="530" y="72" width="11" height="11" fill="#ebedf0" rx="2" ry="2"><title>0 commits</title></rect>
<rect x="530" y="86" width="11" height="11" fill="#ebedf0" rx="2" ry="2"><title>0 commits</title></rect>
<rect x="530" y="100" width="11" height="11" fill="#ebedf0" rx="2" ry="2"><title>0 commits</title></rect>
<rect x="530" y="114" width="11" height="11" fill="#ebedf0" rx="2" ry="2"><title>0 commits</title></rect>
<rect x="544" y="30" width="11" height="11" fill="#ebedf0" rx="2" ry="2"><title>0 commits</title></rect>
<rect x="544" y="44" width="11" height="11" fill="#ebedf0" rx="2" ry="2"><title>0 commits</title></rect>
<rect x="544" y="58" width="11" height="11" fill="#9be9a8" rx="2" ry="2"><title>50 commits</title></rect>
<rect x="544" y="72" width="11" height="11" fill="#ebedf0" rx="2" ry="2"><title>0 commits</title></rect>
<rect x="544" y="86" width="11" height="11" fill="#ebedf0" rx="2" ry="2"><title>0 commits</title></rect>
<rect x="544" y="100" width="11" height="11" fill="#ebedf0" rx="2" ry="2"><title>0 commits</title></rect>
<rect x="544" y="114" width="11" height="11" fill="#ebedf0" rx="2" ry="2"><title>0 commits</title></rect>
<rect x="558" y="30" width="11" height="11" fill="#ebedf0" rx="2" ry="2"><title>0 commits</title></rect>
<rect x="558" y="44" width="11" height="11" fill="#ebedf0" rx="2" ry="2"><title>0 commits</title></rect>
<rect x="558" y="58" width="11" height="11" fill="#9be9a8" rx="2" ry="2"><title>19 commits</title></rect>
<rect x="558" y="72" width="11" height="11" fill="#ebedf0" rx="2" ry="2"><title>0 commits</title></rect>
<rect x="558" y="86" width="11" height="11" fill="#ebedf0" rx="2" ry="2"><title>0 commits</title></rect>
<rect x="558" y="100" width="11" height="11" fill="#9be9a8" rx="2" ry="2"><title>1 commits</title></rect>
<rect x="558" y="114" width="11" height="11" fill="#ebedf0" rx="2" ry="2"><title>0 commits</title></rect>
<rect x="572" y="30" width="11" height="11" fill="#ebedf0" rx="2" ry="2"><title>0 commits</title></rect>
<rect x="572" y="44" width="11" height="11" fill="#ebedf0" rx="2" ry="2"><title>0 commits</title></rect>
<rect x="572" y="58" width="11" height="11" fill="#9be9a8" rx="2" ry="2"><title>25 commits</title></rect>
<rect x="572" y="72" width="11" height="11" fill="#ebedf0" rx="2" ry="2"><title>0 commits</title></rect>
<rect x="572" y="86" width="11" height="11" fill="#ebedf0" rx="2" ry="2"><title>0 commits</title></rect>
<rect x="572" y="100" width="11" height="11" fill="#ebedf0" rx="2" ry="2"><title>0 commits</title></rect>
<rect x="572" y="114" width="11" height="11" fill="#ebedf0" rx="2" ry="2"><title>0 commits</title></rect>
<rect x="586" y="30" width="11" height="11" fill="#ebedf0" rx="2" ry="2"><title>0 commits</title></rect>
<rect x="586" y="44" width="11" height="11" fill="#ebedf0" rx="2" ry="2"><title>0 commits</title></rect>
<rect x="586" y="58" width="11" height="11" fill="#9be9a8" rx="2" ry="2"><title>53 commits</title></rect>
<rect x="586" y="72" width="11" height="11" fill="#ebedf0" rx="2" ry="2"><title>0 commits</title></rect>
<rect x="586" y="86" width="11" height="11" fill="#ebedf0" rx="2" ry="2"><title>0 commits</title></rect>
<rect x="586" y="100" width="11" height="11" fill="#ebedf0" rx="2" ry="2"><title>0 commits</title></rect>
<rect x="586" y="114" width="11" height="11" fill="#ebedf0" rx="2" ry="2"><title>0 commits</title></rect>
<rect x="600" y="30" width="11" height="11" fill="#ebedf0" rx="2" ry="2"><title>0 commits</title></rect>
<rect x="600" y="44" width="11" height="11" fill="#ebedf0" rx="2" ry="2"><title>0 commits</title></rect>
<rect x="600" y="58" width="11" height="11" fill="#9be9a8" rx="2" ry="2"><title>132 commits</title></rect>
<rect x="600" y="72" width="11" height="11" fill="#ebedf0" rx="2" ry="2"><title>0 commits</title></rect>
<rect x="600" y="86" width="11" height="11" fill="#ebedf0" rx="2" ry="2"><title>0 commits</title></rect>
<rect x="600" y="100" width="11" height="11" fill="#ebedf0" rx="2" ry="2"><title>0 commits</title></rect>
<rect x="600" y="114" width="11" height="11" fill="#ebedf0" rx="2" ry="2"><title>0 commits</title></rect>
<rect x="614" y="30" width="11" height="11" fill="#ebedf0" rx="2" ry="2"><title>0 commits</title></rect>
<rect x="614" y="44" width="11" height="11" fill="#ebedf0" rx="2" ry="2"><title>0 commits</title></rect>
<rect x="614" y="58" width="11" height="11" fill="#9be9a8" rx="2" ry="2"><title>73 commits</title></rect>
<rect x="614" y="72" width="11" height="11" fill="#ebedf0" rx="2" ry="2"><title>0 commits</title></rect>
<rect x="614" y="86" width="11" height="11" fill="#9be9a8" rx="2" ry="2"><title>1 commits</title></rect>
<rect x="614" y="100" width="11" height="11" fill="#9be9a8" rx="2" ry="2"><title>7 commits</title></rect>
<rect x="614" y="114" width="11" height="11" fill="#ebedf0" rx="2" ry="2"><title>0 commits</title></rect>
<rect x="628" y="30" width="11" height="11" fill="#ebedf0" rx="2" ry="2"><title>0 commits</title></rect>
<rect x="628" y="44" width="11" height="11" fill="#ebedf0" rx="2" ry="2"><title>0 commits</title></rect>
<rect x="628" y="58" width="11" height="11" fill="#9be9a8" rx="2" ry="2"><title>56 commits</title></rect>
<rect x="628" y="72" width="11" height="11" fill="#ebedf0" rx="2" ry="2"><title>0 commits</title></rect>
<rect x="628" y="86" width="11" height="11" fill="#ebedf0" rx="2" ry="2"><title>0 commits</title></rect>
<rect x="628" y="100" width="11" height="11" fill="#ebedf0" rx="2" ry="2"><title>0 commits</title></rect>
<rect x="628" y="114" width="11" height="11" fill="#ebedf0" rx="2" ry="2"><title>0 commits</title></rect>
<rect x="642" y="30" width="11" height="11" fill="#9be9a8" rx="2" ry="2"><title>1 commits</title></rect>
<rect x="642" y="44" width="11" height="11" fill="#ebedf0" rx="2" ry="2"><title>0 commits</title></rect>
<rect x="642" y="58" width="11" height="11" fill="#9be9a8" rx="2" ry="2"><title>9 commits</title></rect>
<rect x="642" y="72" width="11" height="11" fill="#9be9a8" rx="2" ry="2"><title>1 commits</title></rect>
<rect x="642" y="86" width="11" height="11" fill="#9be9a8" rx="2" ry="2"><title>1 commits</title></rect>
<rect x="642" y="100" width="11" height="11" fill="#ebedf0" rx="2" ry="2"><title>0 commits</title></rect>
<rect x="642" y="114" width="11" height="11" fill="#ebedf0" rx="2" ry="2"><title>0 commits</title></rect>
<rect x="656" y="30" width="11" height="11" fill="#ebedf0" rx="2" ry="2"><title>0 commits</title></rect>
<rect x="656" y="44" width="11" height="11" fill="#ebedf0" rx="2" ry="2"><title>0 commits</title></rect>
<rect x="656" y="58" width="11" height="11" fill="#9be9a8" rx="2" ry="2"><title>27 commits</title></rect>
<rect x="656" y="72" width="11" height="11" fill="#ebedf0" rx="2" ry="2"><title>0 commits</title></rect>
<rect x="656" y="86" width="11" height="11" fill="#ebedf0" rx="2" ry="2"><title>0 commits</title></rect>
<rect x="656" y="100" width="11" height="11" fill="#ebedf0" rx="2" ry="2"><title>0 commits</title></rect>
<rect x="656" y="114" width="11" height="11" fill="#ebedf0" rx="2" ry="2"><title>0 commits</title></rect>
<rect x="670" y="30" width="11" height="11" fill="#ebedf0" rx="2" ry="2"><title>0 commits</title></rect>
<rect x="670" y="44" width="11" height="11" fill="#ebedf0" rx="2" ry="2"><title>0 commits</title></rect>
<rect x="670" y="58" width="11" height="11" fill="#9be9a8" rx="2" ry="2"><title>115 commits</title></rect>
<rect x="670" y="72" width="11" height="11" fill="#ebedf0" rx="2" ry="2"><title>0 commits</title></rect>
<rect x="670" y="86" width="11" height="11" fill="#ebedf0" rx="2" ry="2"><title>0 commits</title></rect>
<rect x="670" y="100" width="11" height="11" fill="#ebedf0" rx="2" ry="2"><title>0 commits</title></rect>
<rect x="670" y="114" width="11" height="11" fill="#9be9a8" rx="2" ry="2"><title>1 commits</title></rect>
<rect x="684" y="30" width="11" height="11" fill="#ebedf0" rx="2" ry="2"><title>0 commits</title></rect>
<rect x="684" y="44" width="11" height="11" fill="#ebedf0" rx="2" ry="2"><title>0 commits</title></rect>
<rect x="684" y="58" width="11" height="11" fill="#9be9a8" rx="2" ry="2"><title>98 commits</title></rect>
<rect x="684" y="72" width="11" height="11" fill="#ebedf0" rx="2" ry="2"><title>0 commits</title></rect>
<rect x="684" y="86" width="11" height="11" fill="#ebedf0" rx="2" ry="2"><title>0 commits</title></rect>
<rect x="684" y="100" width="11" height="11" fill="#ebedf0" rx="2" ry="2"><title>0 commits</title></rect>
<rect x="684" y="114" width="11" height="11" fill="#9be9a8" rx="2" ry="2"><title>1 commits</title></rect>
<rect x="698" y="30" width="11" height="11" fill="#ebedf0" rx="2" ry="2"><title>0 commits</title></rect>
<rect x="698" y="44" width="11" height="11" fill="#ebedf0" rx="2" ry="2"><title>0 commits</title></rect>
<rect x="698" y="58" width="11" height="11" fill="#9be9a8" rx="2" ry="2"><title>126 commits</title></rect>
<rect x="698" y="72" width="11" height="11" fill="#9be9a8" rx="2" ry="2"><title>10 commits</title></rect>
<rect x="698" y="86" width="11" height="11" fill="#9be9a8" rx="2" ry="2"><title>3 commits</title></rect>
<rect x="698" y="100" width="11" height="11" fill="#9be9a8" rx="2" ry="2"><title>1 commits</title></rect>
<rect x="698" y="114" width="11" height="11" fill="#9be9a8" rx="2" ry="2"><title>1 commits</title></rect>
<rect x="712" y="30" width="11" height="11" fill="#9be9a8" rx="2" ry="2"><title>2 commits</title></rect>
<rect x="712" y="44" width="11" height="11" fill="#9be9a8" rx="2" ry="2"><title>6 commits</title></rect>
<rect x="712" y="58" width="11" height="11" fill="#40c463" rx="2" ry="2"><title>309 commits</title></rect>
<rect x="712" y="72" width="11" height="11" fill="#ebedf0" rx="2" ry="2"><title>0 commits</title></rect>
<rect x="712" y="86" width="11" height="11" fill="#ebedf0" rx="2" ry="2"><title>0 commits</title></rect>
<rect x="712" y="100" width="11" height="11" fill="#ebedf0" rx="2" ry="2"><title>0 commits</title></rect>
<rect x="712" y="114" width="11" height="11" fill="#9be9a8" rx="2" ry="2"><title>18 commits</title></rect>
<rect x="726" y="30" width="11" height="11" fill="#9be9a8" rx="2" ry="2"><title>10 commits</title></rect>
<rect x="726" y="44" width="11" height="11" fill="#ebedf0" rx="2" ry="2"><title>0 commits</title></rect>
<rect x="726" y="58" width="11" height="11" fill="#216e39" rx="2" ry="2"><title>477 commits</title></rect>
<rect x="726" y="72" width="11" height="11" fill="#ebedf0" rx="2" ry="2"><title>0 commits</title></rect>
<rect x="726" y="86" width="11" height="11" fill="#ebedf0" rx="2" ry="2"><title>0 commits</title></rect>
<rect x="726" y="100" width="11" height="11" fill="#9be9a8" rx="2" ry="2"><title>2 commits</title></rect>
<rect x="726" y="114" width="11" height="11" fill="#9be9a8" rx="2" ry="2"><title>4 commits</title></rect>
<rect x="740" y="30" width="11" height="11" fill="#9be9a8" rx="2" ry="2"><title>1 commits</title></rect>
<rect x="740" y="44" width="11" height="11" fill="#ebedf0" rx="2" ry="2"><title>0 commits</title></rect>
<rect x="740" y="58" width="11" height="11" fill="#9be9a8" rx="2" ry="2"><title>104 commits</title></rect>
<rect x="740" y="72" width="11" height="11" fill="#9be9a8" rx="2" ry="2"><title>1 commits</title></rect>
<rect x="740" y="86" width="11" height="11" fill="#ebedf0" rx="2" ry="2"><title>0 commits</title></rect>
<rect x="740" y="100" width="11" height="11" fill="#ebedf0" rx="2" ry="2"><title>0 commits</title></rect>
<rect x="740" y="114" width="11" height="11" fill="#9be9a8" rx="2" ry="2"><title>7 commits</title></rect>
<rect x="754" y="30" width="11" height="11" fill="#9be9a8" rx="2" ry="2"><title>17 commits</title></rect>
<rect x="754" y="44" width="11" height="11" fill="#ebedf0" rx="2" ry="2"><title>0 commits</title></rect>
<rect x="754" y="58" width="11" height="11" fill="#9be9a8" rx="2" ry="2"><title>142 commits</title></rect>
<rect x="754" y="72" width="11" height="11" fill="#ebedf0" rx="2" ry="2"><title>0 commits</title></rect>
<rect x="754" y="86" width="11" height="11" fill="#ebedf0" rx="2" ry="2"><title>0 commits</title></rect>
<rect x="754" y="100" width="11" height="11" fill="#ebedf0" rx="2" ry="2"><title>0 commits</title></rect>
<rect x="754" y="114" width="11" height="11" fill="#ebedf0" rx="2" ry="2"><title>0 commits</title></rect>
<text x="640" y="140">Less</text>
<rect x="670" y="130" width="11" height="11" fill="#ebedf0" rx="2" ry="2"></rect>
<rect x="684" y="130" width="11" height="11" fill="#9be9a8" rx="2" ry="2"></rect>
<rect x="698" y="130" width="11" height="11" fill="#40c463" rx="2" ry="2"></rect>
<rect x="712" y="130" width="11" height="11" fill="#216e39" rx="2" ry="2"></rect>
<text x="730" y="140">More</text>
</svg>