<svg width="1138" height="250" viewBox="0 0 1138 250" xmlns="http://www.w3.org/2000/svg">
<style>text { font-family: -apple-system, BlinkMacSystemFont, "Segoe UI", Helvetica, Arial, sans-serif; font-size: 10px; fill: #767676; } .year-label { font-size: 14px; font-weight: bold; fill: #24292e; } .month-label { font-size: 9px; } .bar:hover { fill: #40c463; }</style>
<rect width="1138" height="250" fill="#ffffff" />
<text x="10" y="25" style="font-size: 16px; font-weight: bold; fill: #24292e;">Organization Activity History (Total Commits)</text>
<rect class="bar" x="10" y="198" width="3" height="2" fill="#ebedf0" rx="0.5" ry="0.5"><title>Week of 2021-01-01: 0 commits</title></rect>
<text x="10" y="240" class="year-label">2021</text>
<line x1="10" y1="50" x2="10" y2="220" stroke="#e1e4e8" stroke-dasharray="2,2" />
<rect class="bar" x="14" y="198" width="3" height="2" fill="#ebedf0" rx="0.5" ry="0.5"><title>Week of 2021-01-08: 0 commits</title></rect>
<rect class="bar" x="18" y="198" width="3" height="2" fill="#ebedf0" rx="0.5" ry="0.5"><title>Week of 2021-01-15: 0 commits</title></rect>
<rect class="bar" x="22" y="198" width="3" height="2" fill="#ebedf0" rx="0.5" ry="0.5"><title>Week of 2021-01-22: 0 commits</title></rect>
<rect class="bar" x="26" y="198" width="3" height="2" fill="#40c463" rx="0.5" ry="0.5"><title>Week of 2021-01-29: 5 commits</title></rect>
<rect class="bar" x="30" y="198" width="3" height="2" fill="#ebedf0" rx="0.5" ry="0.5"><title>Week of 2021-02-05: 0 commits</title></rect>
<text x="30" y="220" class="month-label" transform="rotate(45, 30, 220)">Feb</text>
<rect class="bar" x="34" y="198" width="3" height="2" fill="#40c463" rx="0.5" ry="0.5"><title>Week of 2021-02-12: 8 commits</title></rect>
<rect class="bar" x="38" y="197" width="3" height="3" fill="#40c463" rx="0.5" ry="0.5"><title>Week of 2021-02-19: 11 commits</title></rect>
<rect class="bar" x="42" y="192" width="3" height="8" fill="#40c463" rx="0.5" ry="0.5"><title>Week of 2021-02-26: 27 commits</title></rect>
<rect class="bar" x="46" y="198" width="3" height="2" fill="#40c463" rx="0.5" ry="0.5"><title>Week of 2021-03-05: 2 commits</title></rect>
<text x="46" y="220" class="month-label" transform="rotate(45, 46, 220)">Mar</text>
<rect class="bar" x="50" y="198" width="3" height="2" fill="#ebedf0" rx="0.5" ry="0.5"><title>Week of 2021-03-12: 0 commits</title></rect>
<rect class="bar" x="54" y="196" width="3" height="4" fill="#40c463" rx="0.5" ry="0.5"><title>Week of 2021-03-19: 14 commits</title></rect>
<rect class="bar" x="58" y="198" width="3" height="2" fill="#40c463" rx="0.5" ry="0.5"><title>Week of 2021-03-26: 5 commits</title></rect>
<rect class="bar" x="62" y="198" width="3" height="2" fill="#40c463" rx="0.5" ry="0.5"><title>Week of 2021-04-02: 3 commits</title></rect>
<text x="62" y="220" class="month-label" transform="rotate(45, 62, 220)">Apr</text>
<rect class="bar" x="66" y="198" width="3" height="2" fill="#ebedf0" rx="0.5" ry="0.5"><title>Week of 2021-04-09: 0 commits</title></rect>
<rect class="bar" x="70" y="198" width="3" height="2" fill="#ebedf0" rx="0.5" ry="0.5"><title>Week of 2021-04-16: 0 commits</title></rect>
<rect class="bar" x="74" y="198" width="3" height="2" fill="#ebedf0" rx="0.5" ry="0.5"><title>Week of 2021-04-23: 0 commits</title></rect>
<rect class="bar" x="78" y="198" width="3" height="2" fill="#ebedf0" rx="0.5" ry="0.5"><title>Week of 2021-04-30: 0 commits</title></rect>
<rect class="bar" x="82" y="198" width="3" height="2" fill="#ebedf0" rx="0.5" ry="0.5"><title>Week of 2021-05-07: 0 commits</title></rect>
<text x="82" y="220" class="month-label" transform="rotate(45, 82, 220)">May</text>
<rect class="bar" x="86" y="198" width="3" height="2" fill="#ebedf0" rx="0.5" ry="0.5"><title>Week of 2021-05-14: 0 commits</title></rect>
<rect class="bar" x="90" y="198" width="3" height="2" fill="#ebedf0" rx="0.5" ry="0.5"><title>Week of 2021-05-21: 0 commits</title></rect>
<rect class="bar" x="94" y="198" width="3" height="2" fill="#ebedf0" rx="0.5" ry="0.5"><title>Week of 2021-05-28: 0 commits</title></rect>
<rect class="bar" x="98" y="198" width="3" height="2" fill="#ebedf0" rx="0.5" ry="0.5"><title>Week of 2021-06-04: 0 commits</title></rect>
<text x="98" y="220" class="month-label" transform="rotate(45, 98, 220)">Jun</text>
<rect class="bar" x="102" y="198" width="3" height="2" fill="#ebedf0" rx="0.5" ry="0.5"><title>Week of 2021-06-11: 0 commits</title></rect>
<rect class="bar" x="106" y="198" width="3" height="2" fill="#ebedf0" rx="0.5" ry="0.5"><title>Week of 2021-06-18: 0 commits</title></rect>
<rect class="bar" x="110" y="198" width="3" height="2" fill="#ebedf0" rx="0.5" ry="0.5"><title>Week of 2021-06-25: 0 commits</title></rect>
<rect class="bar" x="114" y="198" width="3" height="2" fill="#ebedf0" rx="0.5" ry="0.5"><title>Week of 2021-07-02: 0 commits</title></rect>
<text x="114" y="220" class="month-label" transform="rotate(45, 114, 220)">Jul</text>
<rect class="bar" x="118" y="198" width="3" height="2" fill="#ebedf0" rx="0.5" ry="0.5"><title>Week of 2021-07-09: 0 commits</title></rect>
<rect class="bar" x="122" y="198" width="3" height="2" fill="#ebedf0" rx="0.5" ry="0.5"><title>Week of 2021-07-16: 0 commits</title></rect>
<rect class="bar" x="126" y="198" width="3" height="2" fill="#ebedf0" rx="0.5" ry="0.5"><title>Week of 2021-07-23: 0 commits</title></rect>
<rect class="bar" x="130" y="198" width="3" height="2" fill="#ebedf0" rx="0.5" ry="0.5"><title>Week of 2021-07-30: 0 commits</title></rect>
<rect class="bar" x="134" y="198" width="3" height="2" fill="#ebedf0" rx="0.5" ry="0.5"><title>Week of 2021-08-06: 0 commits</title></rect>
<text x="134" y="220" class="month-label" transform="rotate(45, 134, 220)">Aug</text>
<rect class="bar" x="138" y="198" width="3" height="2" fill="#ebedf0" rx="0.5" ry="0.5"><title>Week of 2021-08-13: 0 commits</title></rect>
<rect class="bar" x="142" y="198" width="3" height="2" fill="#ebedf0" rx="0.5" ry="0.5"><title>Week of 2021-08-20: 0 commits</title></rect>
<rect class="bar" x="146" y="198" width="3" height="2" fill="#ebedf0" rx="0.5" ry="0.5"><title>Week of 2021-08-27: 0 commits</title></rect>
<rect class="bar" x="150" y="198" width="3" height="2" fill="#ebedf0" rx="0.5" ry="0.5"><title>Week of 2021-09-03: 0 commits</title></rect>
<text x="150" y="220" class="month-label" transform="rotate(45, 150, 220)">Sep</text>
<rect class="bar" x="154" y="198" width="3" height="2" fill="#ebedf0" rx="0.5" ry="0.5"><title>Week of 2021-09-10: 0 commits</title></rect>
<rect class="bar" x="158" y="198" width="3" height="2" fill="#40c463" rx="0.5" ry="0.5"><title>Week of 2021-09-17: 1 commits</title></rect>
<rect class="bar" x="162" y="198" width="3" height="2" fill="#ebedf0" rx="0.5" ry="0.5"><title>Week of 2021-09-24: 0 commits</title></rect>
<rect class="bar" x="166" y="198" width="3" height="2" fill="#ebedf0" rx="0.5" ry="0.5"><title>Week of 2021-10-01: 0 commits</title></rect>
<text x="166" y="220" class="month-label" transform="rotate(45, 166, 220)">Oct</text>
<rect class="bar" x="170" y="198" width="3" height="2" fill="#ebedf0" rx="0.5" ry="0.5"><title>Week of 2021-10-08: 0 commits</title></rect>
<rect class="bar" x="174" y="198" width="3" height="2" fill="#ebedf0" rx="0.5" ry="0.5"><title>Week of 2021-10-15: 0 commits</title></rect>
<rect class="bar" x="178" y="198" width="3" height="2" fill="#ebedf0" rx="0.5" ry="0.5"><title>Week of 2021-10-22: 0 commits</title></rect>
<rect class="bar" x="182" y="198" width="3" height="2" fill="#ebedf0" rx="0.5" ry="0.5"><title>Week of 2021-10-29: 0 commits</title></rect>
<rect class="bar" x="186" y="198" width="3" height="2" fill="#ebedf0" rx="0.5" ry="0.5"><title>Week of 2021-11-05: 0 commits</title></rect>
<text x="186" y="220" class="month-label" transform="rotate(45, 186, 220)">Nov</text>
<rect class="bar" x="190" y="198" width="3" height="2" fill="#ebedf0" rx="0.5" ry="0.5"><title>Week of 2021-11-12: 0 commits</title></rect>
<rect class="bar" x="194" y="198" width="3" height="2" fill="#ebedf0" rx="0.5" ry="0.5"><title>Week of 2021-11-19: 0 commits</title></rect>
<rect class="bar" x="198" y="198" width="3" height="2" fill="#ebedf0" rx="0.5" ry="0.5"><title>Week of 2021-11-26: 0 commits</title></rect>
<rect class="bar" x="202" y="198" width="3" height="2" fill="#ebedf0" rx="0.5" ry="0.5"><title>Week of 2021-12-03: 0 commits</title></rect>
<text x="202" y="220" class="month-label" transform="rotate(45, 202, 220)">Dec</text>
<rect class="bar" x="206" y="198" width="3" height="2" fill="#ebedf0" rx="0.5" ry="0.5"><title>Week of 2021-12-10: 0 commits</title></rect>
<rect class="bar" x="210" y="198" width="3" height="2" fill="#ebedf0" rx="0.5" ry="0.5"><title>Week of 2021-12-17: 0 commits</title></rect>
<rect class="bar" x="214" y="198" width="3" height="2" fill="#ebedf0" rx="0.5" ry="0.5"><title>Week of 2021-12-24: 0 commits</title></rect>
<rect class="bar" x="218" y="198" width="3" height="2" fill="#ebedf0" rx="0.5" ry="0.5"><title>Week of 2021-12-31: 0 commits</title></rect>
<rect class="bar" x="222" y="198" width="3" height="2" fill="#ebedf0" rx="0.5" ry="0.5"><title>Week of 2022-01-07: 0 commits</title></rect>
<text x="222" y="240" class="year-label">2022</text>
<line x1="222" y1="50" x2="222" y2="220" stroke="#e1e4e8" stroke-dasharray="2,2" />
<rect class="bar" x="226" y="198" width="3" height="2" fill="#ebedf0" rx="0.5" ry="0.5"><title>Week of 2022-01-14: 0 commits</title></rect>
<rect class="bar" x="230" y="198" width="3" height="2" fill="#ebedf0" rx="0.5" ry="0.5"><title>Week of 2022-01-21: 0 commits</title></rect>
<rect class="bar" x="234" y="198" width="3" height="2" fill="#ebedf0" rx="0.5" ry="0.5"><title>Week of 2022-01-28: 0 commits</title></rect>
<rect class="bar" x="238" y="198" width="3" height="2" fill="#ebedf0" rx="0.5" ry="0.5"><title>Week of 2022-02-04: 0 commits</title></rect>
<text x="238" y="220" class="month-label" transform="rotate(45, 238, 220)">Feb</text>
<rect class="bar" x="242" y="198" width="3" height="2" fill="#40c463" rx="0.5" ry="0.5"><title>Week of 2022-02-11: 1 commits</title></rect>
<rect class="bar" x="246" y="198" width="3" height="2" fill="#ebedf0" rx="0.5" ry="0.5"><title>Week of 2022-02-18: 0 commits</title></rect>
<rect class="bar" x="250" y="198" width="3" height="2" fill="#40c463" rx="0.5" ry="0.5"><title>Week of 2022-02-25: 1 commits</title></rect>
<rect class="bar" x="254" y="198" width="3" height="2" fill="#ebedf0" rx="0.5" ry="0.5"><title>Week of 2022-03-04: 0 commits</title></rect>
<text x="254" y="220" class="month-label" transform="rotate(45, 254, 220)">Mar</text>
<rect class="bar" x="258" y="198" width="3" height="2" fill="#ebedf0" rx="0.5" ry="0.5"><title>Week of 2022-03-11: 0 commits</title></rect>
<rect class="bar" x="262" y="198" width="3" height="2" fill="#ebedf0" rx="0.5" ry="0.5"><title>Week of 2022-03-18: 0 commits</title></rect>
<rect class="bar" x="266" y="198" width="3" height="2" fill="#ebedf0" rx="0.5" ry="0.5"><title>Week of 2022-03-25: 0 commits</title></rect>
<rect class="bar" x="270" y="198" width="3" height="2" fill="#ebedf0" rx="0.5" ry="0.5"><title>Week of 2022-04-01: 0 commits</title></rect>
<text x="270" y="220" class="month-label" transform="rotate(45, 270, 220)">Apr</text>
<rect class="bar" x="274" y="198" width="3" height="2" fill="#ebedf0" rx="0.5" ry="0.5"><title>Week of 2022-04-08: 0 commits</title></rect>
<rect class="bar" x="278" y="198" width="3" height="2" fill="#ebedf0" rx="0.5" ry="0.5"><title>Week of 2022-04-15: 0 commits</title></rect>
<rect class="bar" x="282" y="198" width="3" height="2" fill="#ebedf0" rx="0.5" ry="0.5"><title>Week of 2022-04-22: 0 commits</title></rect>
<rect class="bar" x="286" y="198" width="3" height="2" fill="#ebedf0" rx="0.5" ry="0.5"><title>Week of 2022-04-29: 0 commits</title></rect>
<rect class="bar" x="290" y="198" width="3" height="2" fill="#ebedf0" rx="0.5" ry="0.5"><title>Week of 2022-05-06: 0 commits</title></rect>
<text x="290" y="220" class="month-label" transform="rotate(45, 290, 220)">May</text>
<rect class="bar" x="294" y="198" width="3" height="2" fill="#40c463" rx="0.5" ry="0.5"><title>Week of 2022-05-13: 3 commits</title></rect>
<rect class="bar" x="298" y="198" width="3" height="2" fill="#ebedf0" rx="0.5" ry="0.5"><title>Week of 2022-05-20: 0 commits</title></rect>
<rect class="bar" x="302" y="198" width="3" height="2" fill="#ebedf0" rx="0.5" ry="0.5"><title>Week of 2022-05-27: 0 commits</title></rect>
<rect class="bar" x="306" y="198" width="3" height="2" fill="#ebedf0" rx="0.5" ry="0.5"><title>Week of 2022-06-03: 0 commits</title></rect>
<text x="306" y="220" class="month-label" transform="rotate(45, 306, 220)">Jun</text>
<rect class="bar" x="310" y="198" width="3" height="2" fill="#ebedf0" rx="0.5" ry="0.5"><title>Week of 2022-06-10: 0 commits</title></rect>
<rect class="bar" x="314" y="198" width="3" height="2" fill="#ebedf0" rx="0.5" ry="0.5"><title>Week of 2022-06-17: 0 commits</title></rect>
<rect class="bar" x="318" y="198" width="3" height="2" fill="#ebedf0" rx="0.5" ry="0.5"><title>Week of 2022-06-24: 0 commits</title></rect>
<rect class="bar" x="322" y="198" width="3" height="2" fill="#ebedf0" rx="0.5" ry="0.5"><title>Week of 2022-07-01: 0 commits</title></rect>
<text x="322" y="220" class="month-label" transform="rotate(45, 322, 220)">Jul</text>
<rect class="bar" x="326" y="198" width="3" height="2" fill="#ebedf0" rx="0.5" ry="0.5"><title>Week of 2022-07-08: 0 commits</title></rect>
<rect class="bar" x="330" y="198" width="3" height="2" fill="#ebedf0" rx="0.5" ry="0.5"><title>Week of 2022-07-15: 0 commits</title></rect>
<rect class="bar" x="334" y="198" width="3" height="2" fill="#ebedf0" rx="0.5" ry="0.5"><title>Week of 2022-07-22: 0 commits</title></rect>
<rect class="bar" x="338" y="198" width="3" height="2" fill="#ebedf0" rx="0.5" ry="0.5"><title>Week of 2022-07-29: 0 commits</title></rect>
<rect class="bar" x="342" y="198" width="3" height="2" fill="#ebedf0" rx="0.5" ry="0.5"><title>Week of 2022-08-05: 0 commits</title></rect>
<text x="342" y="220" class="month-label" transform="rotate(45, 342, 220)">Aug</text>
<rect class="bar" x="346" y="198" width="3" height="2" fill="#ebedf0" rx="0.5" ry="0.5"><title>Week of 2022-08-12: 0 commits</title></rect>
<rect class="bar" x="350" y="198" width="3" height="2" fill="#ebedf0" rx="0.5" ry="0.5"><title>Week of 2022-08-19: 0 commits</title></rect>
<rect class="bar" x="354" y="198" width="3" height="2" fill="#ebedf0" rx="0.5" ry="0.5"><title>Week of 2022-08-26: 0 commits</title></rect>
<rect class="bar" x="358" y="198" width="3" height="2" fill="#ebedf0" rx="0.5" ry="0.5"><title>Week of 2022-09-02: 0 commits</title></rect>
<text x="358" y="220" class="month-label" transform="rotate(45, 358, 220)">Sep</text>
<rect class="bar" x="362" y="198" width="3" height="2" fill="#ebedf0" rx="0.5" ry="0.5"><title>Week of 2022-09-09: 0 commits</title></rect>
<rect class="bar" x="366" y="198" width="3" height="2" fill="#ebedf0" rx="0.5" ry="0.5"><title>Week of 2022-09-16: 0 commits</title></rect>
<rect class="bar" x="370" y="198" width="3" height="2" fill="#ebedf0" rx="0.5" ry="0.5"><title>Week of 2022-09-23: 0 commits</title></rect>
<rect class="bar" x="374" y="198" width="3" height="2" fill="#40c463" rx="0.5" ry="0.5"><title>Week of 2022-09-30: 1 commits</title></rect>
<rect class="bar" x="378" y="198" width="3" height="2" fill="#ebedf0" rx="0.5" ry="0.5"><title>Week of 2022-10-07: 0 commits</title></rect>
<text x="378" y="220" class="month-label" transform="rotate(45, 378, 220)">Oct</text>
<rect class="bar" x="382" y="198" width="3" height="2" fill="#ebedf0" rx="0.5" ry="0.5"><title>Week of 2022-10-14: 0 commits</title></rect>
<rect class="bar" x="386" y="198" width="3" height="2" fill="#ebedf0" rx="0.5" ry="0.5"><title>Week of 2022-10-21: 0 commits</title></rect>
<rect class="bar" x="390" y="198" width="3" height="2" fill="#ebedf0" rx="0.5" ry="0.5"><title>Week of 2022-10-28: 0 commits</title></rect>
<rect class="bar" x="394" y="198" width="3" height="2" fill="#ebedf0" rx="0.5" ry="0.5"><title>Week of 2022-11-04: 0 commits</title></rect>
<text x="394" y="220" class="month-label" transform="rotate(45, 394, 220)">Nov</text>
<rect class="bar" x="398" y="198" width="3" height="2" fill="#ebedf0" rx="0.5" ry="0.5"><title>Week of 2022-11-11: 0 commits</title></rect>
<rect class="bar" x="402" y="198" width="3" height="2" fill="#ebedf0" rx="0.5" ry="0.5"><title>Week of 2022-11-18: 0 commits</title></rect>
<rect class="bar" x="406" y="198" width="3" height="2" fill="#ebedf0" rx="0.5" ry="0.5"><title>Week of 2022-11-25: 0 commits</title></rect>
<rect class="bar" x="410" y="198" width="3" height="2" fill="#ebedf0" rx="0.5" ry="0.5"><title>Week of 2022-12-02: 0 commits</title></rect>
<text x="410" y="220" class="month-label" transform="rotate(45, 410, 220)">Dec</text>
<rect class="bar" x="414" y="198" width="3" height="2" fill="#ebedf0" rx="0.5" ry="0.5"><title>Week of 2022-12-09: 0 commits</title></rect>
<rect class="bar" x="418" y="198" width="3" height="2" fill="#ebedf0" rx="0.5" ry="0.5"><title>Week of 2022-12-16: 0 commits</title></rect>
<rect class="bar" x="422" y="198" width="3" height="2" fill="#ebedf0" rx="0.5" ry="0.5"><title>Week of 2022-12-23: 0 commits</title></rect>
<rect class="bar" x="426" y="198" width="3" height="2" fill="#ebedf0" rx="0.5" ry="0.5"><title>Week of 2022-12-30: 0 commits</title></rect>
<rect class="bar" x="430" y="198" width="3" height="2" fill="#ebedf0" rx="0.5" ry="0.5"><title>Week of 2023-01-06: 0 commits</title></rect>
<text x="430" y="240" class="year-label">2023</text>
<line x1="430" y1="50" x2="430" y2="220" stroke="#e1e4e8" stroke-dasharray="2,2" />
<rect class="bar" x="434" y="198" width="3" height="2" fill="#ebedf0" rx="0.5" ry="0.5"><title>Week of 2023-01-13: 0 commits</title></rect>
<rect class="bar" x="438" y="198" width="3" height="2" fill="#ebedf0" rx="0.5" ry="0.5"><title>Week of 2023-01-20: 0 commits</title></rect>
<rect class="bar" x="442" y="198" width="3" height="2" fill="#ebedf0" rx="0.5" ry="0.5"><title>Week of 2023-01-27: 0 commits</title></rect>
<rect class="bar" x="446" y="198" width="3" height="2" fill="#ebedf0" rx="0.5" ry="0.5"><title>Week of 2023-02-03: 0 commits</title></rect>
<text x="446" y="220" class="month-label" transform="rotate(45, 446, 220)">Feb</text>
<rect class="bar" x="450" y="198" width="3" height="2" fill="#ebedf0" rx="0.5" ry="0.5"><title>Week of 2023-02-10: 0 commits</title></rect>
<rect class="bar" x="454" y="198" width="3" height="2" fill="#ebedf0" rx="0.5" ry="0.5"><title>Week of 2023-02-17: 0 commits</title></rect>
<rect class="bar" x="458" y="198" width="3" height="2" fill="#ebedf0" rx="0.5" ry="0.5"><title>Week of 2023-02-24: 0 commits</title></rect>
<rect class="bar" x="462" y="198" width="3" height="2" fill="#ebedf0" rx="0.5" ry="0.5"><title>Week of 2023-03-03: 0 commits</title></rect>
<text x="462" y="220" class="month-label" transform="rotate(45, 462, 220)">Mar</text>
<rect class="bar" x="466" y="198" width="3" height="2" fill="#ebedf0" rx="0.5" ry="0.5"><title>Week of 2023-03-10: 0 commits</title></rect>
<rect class="bar" x="470" y="198" width="3" height="2" fill="#ebedf0" rx="0.5" ry="0.5"><title>Week of 2023-03-17: 0 commits</title></rect>
<rect class="bar" x="474" y="198" width="3" height="2" fill="#ebedf0" rx="0.5" ry="0.5"><title>Week of 2023-03-24: 0 commits</title></rect>
<rect class="bar" x="478" y="198" width="3" height="2" fill="#ebedf0" rx="0.5" ry="0.5"><title>Week of 2023-03-31: 0 commits</title></rect>
<rect class="bar" x="482" y="198" width="3" height="2" fill="#ebedf0" rx="0.5" ry="0.5"><title>Week of 2023-04-07: 0 commits</title></rect>
<text x="482" y="220" class="month-label" transform="rotate(45, 482, 220)">Apr</text>
<rect class="bar" x="486" y="198" width="3" height="2" fill="#ebedf0" rx="0.5" ry="0.5"><title>Week of 2023-04-14: 0 commits</title></rect>
<rect class="bar" x="490" y="198" width="3" height="2" fill="#ebedf0" rx="0.5" ry="0.5"><title>Week of 2023-04-21: 0 commits</title></rect>
<rect class="bar" x="494" y="198" width="3" height="2" fill="#ebedf0" rx="0.5" ry="0.5"><title>Week of 2023-04-28: 0 commits</title></rect>
<rect class="bar" x="498" y="198" width="3" height="2" fill="#ebedf0" rx="0.5" ry="0.5"><title>Week of 2023-05-05: 0 commits</title></rect>
<text x="498" y="220" class="month-label" transform="rotate(45, 498, 220)">May</text>
<rect class="bar" x="502" y="198" width="3" height="2" fill="#ebedf0" rx="0.5" ry="0.5"><title>Week of 2023-05-12: 0 commits</title></rect>
<rect class="bar" x="506" y="198" width="3" height="2" fill="#40c463" rx="0.5" ry="0.5"><title>Week of 2023-05-19: 8 commits</title></rect>
<rect class="bar" x="510" y="198" width="3" height="2" fill="#ebedf0" rx="0.5" ry="0.5"><title>Week of 2023-05-26: 0 commits</title></rect>
<rect class="bar" x="514" y="198" width="3" height="2" fill="#ebedf0" rx="0.5" ry="0.5"><title>Week of 2023-06-02: 0 commits</title></rect>
<text x="514" y="220" class="month-label" transform="rotate(45, 514, 220)">Jun</text>
<rect class="bar" x="518" y="198" width="3" height="2" fill="#ebedf0" rx="0.5" ry="0.5"><title>Week of 2023-06-09: 0 commits</title></rect>
<rect class="bar" x="522" y="198" width="3" height="2" fill="#ebedf0" rx="0.5" ry="0.5"><title>Week of 2023-06-16: 0 commits</title></rect>
<rect class="bar" x="526" y="198" width="3" height="2" fill="#ebedf0" rx="0.5" ry="0.5"><title>Week of 2023-06-23: 0 commits</title></rect>
<rect class="bar" x="530" y="198" width="3" height="2" fill="#ebedf0" rx="0.5" ry="0.5"><title>Week of 2023-06-30: 0 commits</title></rect>
<rect class="bar" x="534" y="198" width="3" height="2" fill="#40c463" rx="0.5" ry="0.5"><title>Week of 2023-07-07: 1 commits</title></rect>
<text x="534" y="220" class="month-label" transform="rotate(45, 534, 220)">Jul</text>
<rect class="bar" x="538" y="198" width="3" height="2" fill="#ebedf0" rx="0.5" ry="0.5"><title>Week of 2023-07-14: 0 commits</title></rect>
<rect class="bar" x="542" y="198" width="3" height="2" fill="#ebedf0" rx="0.5" ry="0.5"><title>Week of 2023-07-21: 0 commits</title></rect>
<rect class="bar" x="546" y="198" width="3" height="2" fill="#ebedf0" rx="0.5" ry="0.5"><title>Week of 2023-07-28: 0 commits</title></rect>
<rect class="bar" x="550" y="198" width="3" height="2" fill="#ebedf0" rx="0.5" ry="0.5"><title>Week of 2023-08-04: 0 commits</title></rect>
<text x="550" y="220" class="month-label" transform="rotate(45, 550, 220)">Aug</text>
<rect class="bar" x="554" y="198" width="3" height="2" fill="#ebedf0" rx="0.5" ry="0.5"><title>Week of 2023-08-11: 0 commits</title></rect>
<rect class="bar" x="558" y="198" width="3" height="2" fill="#ebedf0" rx="0.5" ry="0.5"><title>Week of 2023-08-18: 0 commits</title></rect>
<rect class="bar" x="562" y="198" width="3" height="2" fill="#40c463" rx="0.5" ry="0.5"><title>Week of 2023-08-25: 2 commits</title></rect>
<rect class="bar" x="566" y="198" width="3" height="2" fill="#ebedf0" rx="0.5" ry="0.5"><title>Week of 2023-09-01: 0 commits</title></rect>
<text x="566" y="220" class="month-label" transform="rotate(45, 566, 220)">Sep</text>
<rect class="bar" x="570" y="198" width="3" height="2" fill="#ebedf0" rx="0.5" ry="0.5"><title>Week of 2023-09-08: 0 commits</title></rect>
<rect class="bar" x="574" y="198" width="3" height="2" fill="#ebedf0" rx="0.5" ry="0.5"><title>Week of 2023-09-15: 0 commits</title></rect>
<rect class="bar" x="578" y="198" width="3" height="2" fill="#ebedf0" rx="0.5" ry="0.5"><title>Week of 2023-09-22: 0 commits</title></rect>
<rect class="bar" x="582" y="198" width="3" height="2" fill="#40c463" rx="0.5" ry="0.5"><title>Week of 2023-09-29: 1 commits</title></rect>
<rect class="bar" x="586" y="198" width="3" height="2" fill="#ebedf0" rx="0.5" ry="0.5"><title>Week of 2023-10-06: 0 commits</title></rect>
<text x="586" y="220" class="month-label" transform="rotate(45, 586, 220)">Oct</text>
<rect class="bar" x="590" y="198" width="3" height="2" fill="#ebedf0" rx="0.5" ry="0.5"><title>Week of 2023-10-13: 0 commits</title></rect>
<rect class="bar" x="594" y="198" width="3" height="2" fill="#ebedf0" rx="0.5" ry="0.5"><title>Week of 2023-10-20: 0 commits</title></rect>
<rect class="bar" x="598" y="198" width="3" height="2" fill="#ebedf0" rx="0.5" ry="0.5"><title>Week of 2023-10-27: 0 commits</title></rect>
<rect class="bar" x="602" y="198" width="3" height="2" fill="#ebedf0" rx="0.5" ry="0.5"><title>Week of 2023-11-03: 0 commits</title></rect>
<text x="602" y="220" class="month-label" transform="rotate(45, 602, 220)">Nov</text>
<rect class="bar" x="606" y="198" width="3" height="2" fill="#ebedf0" rx="0.5" ry="0.5"><title>Week of 2023-11-10: 0 commits</title></rect>
<rect class="bar" x="610" y="198" width="3" height="2" fill="#ebedf0" rx="0.5" ry="0.5"><title>Week of 2023-11-17: 0 commits</title></rect>
<rect class="bar" x="614" y="198" width="3" height="2" fill="#ebedf0" rx="0.5" ry="0.5"><title>Week of 2023-11-24: 0 commits</title></rect>
<rect class="bar" x="618" y="198" width="3" height="2" fill="#ebedf0" rx="0.5" ry="0.5"><title>Week of 2023-12-01: 0 commits</title></rect>
<text x="618" y="220" class="month-label" transform="rotate(45, 618, 220)">Dec</text>
<rect class="bar" x="622" y="198" width="3" height="2" fill="#ebedf0" rx="0.5" ry="0.5"><title>Week of 2023-12-08: 0 commits</title></rect>
<rect class="bar" x="626" y="198" width="3" height="2" fill="#ebedf0" rx="0.5" ry="0.5"><title>Week of 2023-12-15: 0 commits</title></rect>
<rect class="bar" x="630" y="198" width="3" height="2" fill="#ebedf0" rx="0.5" ry="0.5"><title>Week of 2023-12-22: 0 commits</title></rect>
<rect class="bar" x="634" y="198" width="3" height="2" fill="#ebedf0" rx="0.5" ry="0.5"><title>Week of 2023-12-29: 0 commits</title></rect>
<rect class="bar" x="638" y="198" width="3" height="2" fill="#ebedf0" rx="0.5" ry="0.5"><title>Week of 2024-01-05: 0 commits</title></rect>
<text x="638" y="240" class="year-label">2024</text>
<line x1="638" y1="50" x2="638" y2="220" stroke="#e1e4e8" stroke-dasharray="2,2" />
<rect class="bar" x="642" y="198" width="3" height="2" fill="#40c463" rx="0.5" ry="0.5"><title>Week of 2024-01-12: 1 commits</title></rect>
<rect class="bar" x="646" y="198" width="3" height="2" fill="#ebedf0" rx="0.5" ry="0.5"><title>Week of 2024-01-19: 0 commits</title></rect>
<rect class="bar" x="650" y="198" width="3" height="2" fill="#ebedf0" rx="0.5" ry="0.5"><title>Week of 2024-01-26: 0 commits</title></rect>
<rect class="bar" x="654" y="198" width="3" height="2" fill="#ebedf0" rx="0.5" ry="0.5"><title>Week of 2024-02-02: 0 commits</title></rect>
<text x="654" y="220" class="month-label" transform="rotate(45, 654, 220)">Feb</text>
<rect class="bar" x="658" y="198" width="3" height="2" fill="#ebedf0" rx="0.5" ry="0.5"><title>Week of 2024-02-09: 0 commits</title></rect>
<rect class="bar" x="662" y="198" width="3" height="2" fill="#ebedf0" rx="0.5" ry="0.5"><title>Week of 2024-02-16: 0 commits</title></rect>
<rect class="bar" x="666" y="198" width="3" height="2" fill="#ebedf0" rx="0.5" ry="0.5"><title>Week of 2024-02-23: 0 commits</title></rect>
<rect class="bar" x="670" y="198" width="3" height="2" fill="#ebedf0" rx="0.5" ry="0.5"><title>Week of 2024-03-01: 0 commits</title></rect>
<text x="670" y="220" class="month-label" transform="rotate(45, 670, 220)">Mar</text>
<rect class="bar" x="674" y="198" width="3" height="2" fill="#ebedf0" rx="0.5" ry="0.5"><title>Week of 2024-03-08: 0 commits</title></rect>
<rect class="bar" x="678" y="198" width="3" height="2" fill="#ebedf0" rx="0.5" ry="0.5"><title>Week of 2024-03-15: 0 commits</title></rect>
<rect class="bar" x="682" y="198" width="3" height="2" fill="#ebedf0" rx="0.5" ry="0.5"><title>Week of 2024-03-22: 0 commits</title></rect>
<rect class="bar" x="686" y="198" width="3" height="2" fill="#ebedf0" rx="0.5" ry="0.5"><title>Week of 2024-03-29: 0 commits</title></rect>
<rect class="bar" x="690" y="198" width="3" height="2" fill="#ebedf0" rx="0.5" ry="0.5"><title>Week of 2024-04-05: 0 commits</title></rect>
<text x="690" y="220" class="month-label" transform="rotate(45, 690, 220)">Apr</text>
<rect class="bar" x="694" y="198" width="3" height="2" fill="#ebedf0" rx="0.5" ry="0.5"><title>Week of 2024-04-12: 0 commits</title></rect>
<rect class="bar" x="698" y="198" width="3" height="2" fill="#ebedf0" rx="0.5" ry="0.5"><title>Week of 2024-04-19: 0 commits</title></rect>
<rect class="bar" x="702" y="198" width="3" height="2" fill="#40c463" rx="0.5" ry="0.5"><title>Week of 2024-04-26: 4 commits</title></rect>
<rect class="bar" x="706" y="198" width="3" height="2" fill="#ebedf0" rx="0.5" ry="0.5"><title>Week of 2024-05-03: 0 commits</title></rect>
<text x="706" y="220" class="month-label" transform="rotate(45, 706, 220)">May</text>
<rect class="bar" x="710" y="198" width="3" height="2" fill="#ebedf0" rx="0.5" ry="0.5"><title>Week of 2024-05-10: 0 commits</title></rect>
<rect class="bar" x="714" y="198" width="3" height="2" fill="#ebedf0" rx="0.5" ry="0.5"><title>Week of 2024-05-17: 0 commits</title></rect>
<rect class="bar" x="718" y="198" width="3" height="2" fill="#ebedf0" rx="0.5" ry="0.5"><title>Week of 2024-05-24: 0 commits</title></rect>
<rect class="bar" x="722" y="198" width="3" height="2" fill="#ebedf0" rx="0.5" ry="0.5"><title>Week of 2024-05-31: 0 commits</title></rect>
<rect class="bar" x="726" y="198" width="3" height="2" fill="#ebedf0" rx="0.5" ry="0.5"><title>Week of 2024-06-07: 0 commits</title></rect>
<text x="726" y="220" class="month-label" transform="rotate(45, 726, 220)">Jun</text>
<rect class="bar" x="730" y="196" width="3" height="4" fill="#40c463" rx="0.5" ry="0.5"><title>Week of 2024-06-14: 15 commits</title></rect>
<rect class="bar" x="734" y="197" width="3" height="3" fill="#40c463" rx="0.5" ry="0.5"><title>Week of 2024-06-21: 10 commits</title></rect>
<rect class="bar" x="738" y="198" width="3" height="2" fill="#40c463" rx="0.5" ry="0.5"><title>Week of 2024-06-28: 4 commits</title></rect>
<rect class="bar" x="742" y="193" width="3" height="7" fill="#40c463" rx="0.5" ry="0.5"><title>Week of 2024-07-05: 22 commits</title></rect>
<text x="742" y="220" class="month-label" transform="rotate(45, 742, 220)">Jul</text>
<rect class="bar" x="746" y="198" width="3" height="2" fill="#40c463" rx="0.5" ry="0.5"><title>Week of 2024-07-12: 3 commits</title></rect>
<rect class="bar" x="750" y="198" width="3" height="2" fill="#40c463" rx="0.5" ry="0.5"><title>Week of 2024-07-19: 4 commits</title></rect>
<rect class="bar" x="754" y="198" width="3" height="2" fill="#ebedf0" rx="0.5" ry="0.5"><title>Week of 2024-07-26: 0 commits</title></rect>
<rect class="bar" x="758" y="198" width="3" height="2" fill="#40c463" rx="0.5" ry="0.5"><title>Week of 2024-08-02: 5 commits</title></rect>
<text x="758" y="220" class="month-label" transform="rotate(45, 758, 220)">Aug</text>
<rect class="bar" x="762" y="198" width="3" height="2" fill="#40c463" rx="0.5" ry="0.5"><title>Week of 2024-08-09: 6 commits</title></rect>
<rect class="bar" x="766" y="196" width="3" height="4" fill="#40c463" rx="0.5" ry="0.5"><title>Week of 2024-08-16: 14 commits</title></rect>
<rect class="bar" x="770" y="198" width="3" height="2" fill="#ebedf0" rx="0.5" ry="0.5"><title>Week of 2024-08-23: 0 commits</title></rect>
<rect class="bar" x="774" y="197" width="3" height="3" fill="#40c463" rx="0.5" ry="0.5"><title>Week of 2024-08-30: 10 commits</title></rect>
<rect class="bar" x="778" y="198" width="3" height="2" fill="#40c463" rx="0.5" ry="0.5"><title>Week of 2024-09-06: 3 commits</title></rect>
<text x="778" y="220" class="month-label" transform="rotate(45, 778, 220)">Sep</text>
<rect class="bar" x="782" y="198" width="3" height="2" fill="#40c463" rx="0.5" ry="0.5"><title>Week of 2024-09-13: 5 commits</title></rect>
<rect class="bar" x="786" y="198" width="3" height="2" fill="#40c463" rx="0.5" ry="0.5"><title>Week of 2024-09-20: 1 commits</title></rect>
<rect class="bar" x="790" y="198" width="3" height="2" fill="#40c463" rx="0.5" ry="0.5"><title>Week of 2024-09-27: 8 commits</title></rect>
<rect class="bar" x="794" y="198" width="3" height="2" fill="#40c463" rx="0.5" ry="0.5"><title>Week of 2024-10-04: 1 commits</title></rect>
<text x="794" y="220" class="month-label" transform="rotate(45, 794, 220)">Oct</text>
<rect class="bar" x="798" y="198" width="3" height="2" fill="#40c463" rx="0.5" ry="0.5"><title>Week of 2024-10-11: 7 commits</title></rect>
<rect class="bar" x="802" y="197" width="3" height="3" fill="#40c463" rx="0.5" ry="0.5"><title>Week of 2024-10-18: 10 commits</title></rect>
<rect class="bar" x="806" y="198" width="3" height="2" fill="#ebedf0" rx="0.5" ry="0.5"><title>Week of 2024-10-25: 0 commits</title></rect>
<rect class="bar" x="810" y="198" width="3" height="2" fill="#40c463" rx="0.5" ry="0.5"><title>Week of 2024-11-01: 2 commits</title></rect>
<text x="810" y="220" class="month-label" transform="rotate(45, 810, 220)">Nov</text>
<rect class="bar" x="814" y="198" width="3" height="2" fill="#40c463" rx="0.5" ry="0.5"><title>Week of 2024-11-08: 1 commits</title></rect>
<rect class="bar" x="818" y="198" width="3" height="2" fill="#40c463" rx="0.5" ry="0.5"><title>Week of 2024-11-15: 5 commits</title></rect>
<rect class="bar" x="822" y="198" width="3" height="2" fill="#ebedf0" rx="0.5" ry="0.5"><title>Week of 2024-11-22: 0 commits</title></rect>
<rect class="bar" x="826" y="198" width="3" height="2" fill="#ebedf0" rx="0.5" ry="0.5"><title>Week of 2024-11-29: 0 commits</title></rect>
<rect class="bar" x="830" y="198" width="3" height="2" fill="#40c463" rx="0.5" ry="0.5"><title>Week of 2024-12-06: 4 commits</title></rect>
<text x="830" y="220" class="month-label" transform="rotate(45, 830, 220)">Dec</text>
<rect class="bar" x="834" y="198" width="3" height="2" fill="#40c463" rx="0.5" ry="0.5"><title>Week of 2024-12-13: 3 commits</title></rect>
<rect class="bar" x="838" y="198" width="3" height="2" fill="#ebedf0" rx="0.5" ry="0.5"><title>Week of 2024-12-20: 0 commits</title></rect>
<rect class="bar" x="842" y="198" width="3" height="2" fill="#ebedf0" rx="0.5" ry="0.5"><title>Week of 2024-12-27: 0 commits</title></rect>
<rect class="bar" x="846" y="198" width="3" height="2" fill="#40c463" rx="0.5" ry="0.5"><title>Week of 2025-01-03: 2 commits</title></rect>
<text x="846" y="240" class="year-label">2025</text>
<line x1="846" y1="50" x2="846" y2="220" stroke="#e1e4e8" stroke-dasharray="2,2" />
<rect class="bar" x="850" y="198" width="3" height="2" fill="#ebedf0" rx="0.5" ry="0.5"><title>Week of 2025-01-10: 0 commits</title></rect>
<rect class="bar" x="854" y="198" width="3" height="2" fill="#40c463" rx="0.5" ry="0.5"><title>Week of 2025-01-17: 4 commits</title></rect>
<rect class="bar" x="858" y="191" width="3" height="9" fill="#40c463" rx="0.5" ry="0.5"><title>Week of 2025-01-24: 29 commits</title></rect>
<rect class="bar" x="862" y="194" width="3" height="6" fill="#40c463" rx="0.5" ry="0.5"><title>Week of 2025-01-31: 20 commits</title></rect>
<rect class="bar" x="866" y="198" width="3" height="2" fill="#40c463" rx="0.5" ry="0.5"><title>Week of 2025-02-07: 8 commits</title></rect>
<text x="866" y="220" class="month-label" transform="rotate(45, 866, 220)">Feb</text>
<rect class="bar" x="870" y="197" width="3" height="3" fill="#40c463" rx="0.5" ry="0.5"><title>Week of 2025-02-14: 12 commits</title></rect>
<rect class="bar" x="874" y="196" width="3" height="4" fill="#40c463" rx="0.5" ry="0.5"><title>Week of 2025-02-21: 15 commits</title></rect>
<rect class="bar" x="878" y="183" width="3" height="17" fill="#40c463" rx="0.5" ry="0.5"><title>Week of 2025-02-28: 53 commits</title></rect>
<rect class="bar" x="882" y="186" width="3" height="14" fill="#40c463" rx="0.5" ry="0.5"><title>Week of 2025-03-07: 45 commits</title></rect>
<text x="882" y="220" class="month-label" transform="rotate(45, 882, 220)">Mar</text>
<rect class="bar" x="886" y="194" width="3" height="6" fill="#40c463" rx="0.5" ry="0.5"><title>Week of 2025-03-14: 19 commits</title></rect>
<rect class="bar" x="890" y="193" width="3" height="7" fill="#40c463" rx="0.5" ry="0.5"><title>Week of 2025-03-21: 23 commits</title></rect>
<rect class="bar" x="894" y="185" width="3" height="15" fill="#40c463" rx="0.5" ry="0.5"><title>Week of 2025-03-28: 46 commits</title></rect>
<rect class="bar" x="898" y="192" width="3" height="8" fill="#40c463" rx="0.5" ry="0.5"><title>Week of 2025-04-04: 25 commits</title></rect>
<text x="898" y="220" class="month-label" transform="rotate(45, 898, 220)">Apr</text>
<rect class="bar" x="902" y="198" width="3" height="2" fill="#40c463" rx="0.5" ry="0.5"><title>Week of 2025-04-11: 5 commits</title></rect>
<rect class="bar" x="906" y="198" width="3" height="2" fill="#ebedf0" rx="0.5" ry="0.5"><title>Week of 2025-04-18: 0 commits</title></rect>
<rect class="bar" x="910" y="198" width="3" height="2" fill="#40c463" rx="0.5" ry="0.5"><title>Week of 2025-04-25: 2 commits</title></rect>
<rect class="bar" x="914" y="198" width="3" height="2" fill="#40c463" rx="0.5" ry="0.5"><title>Week of 2025-05-02: 1 commits</title></rect>
<text x="914" y="220" class="month-label" transform="rotate(45, 914, 220)">May</text>
<rect class="bar" x="918" y="198" width="3" height="2" fill="#ebedf0" rx="0.5" ry="0.5"><title>Week of 2025-05-09: 0 commits</title></rect>
<rect class="bar" x="922" y="198" width="3" height="2" fill="#ebedf0" rx="0.5" ry="0.5"><title>Week of 2025-05-16: 0 commits</title></rect>
<rect class="bar" x="926" y="198" width="3" height="2" fill="#40c463" rx="0.5" ry="0.5"><title>Week of 2025-05-23: 2 commits</title></rect>
<rect class="bar" x="930" y="193" width="3" height="7" fill="#40c463" rx="0.5" ry="0.5"><title>Week of 2025-05-30: 24 commits</title></rect>
<rect class="bar" x="934" y="196" width="3" height="4" fill="#40c463" rx="0.5" ry="0.5"><title>Week of 2025-06-06: 14 commits</title></rect>
<text x="934" y="220" class="month-label" transform="rotate(45, 934, 220)">Jun</text>
<rect class="bar" x="938" y="196" width="3" height="4" fill="#40c463" rx="0.5" ry="0.5"><title>Week of 2025-06-13: 14 commits</title></rect>
<rect class="bar" x="942" y="195" width="3" height="5" fill="#40c463" rx="0.5" ry="0.5"><title>Week of 2025-06-20: 16 commits</title></rect>
<rect class="bar" x="946" y="198" width="3" height="2" fill="#40c463" rx="0.5" ry="0.5"><title>Week of 2025-06-27: 4 commits</title></rect>
<rect class="bar" x="950" y="194" width="3" height="6" fill="#40c463" rx="0.5" ry="0.5"><title>Week of 2025-07-04: 20 commits</title></rect>
<text x="950" y="220" class="month-label" transform="rotate(45, 950, 220)">Jul</text>
<rect class="bar" x="954" y="198" width="3" height="2" fill="#40c463" rx="0.5" ry="0.5"><title>Week of 2025-07-11: 6 commits</title></rect>
<rect class="bar" x="958" y="198" width="3" height="2" fill="#40c463" rx="0.5" ry="0.5"><title>Week of 2025-07-18: 9 commits</title></rect>
<rect class="bar" x="962" y="189" width="3" height="11" fill="#40c463" rx="0.5" ry="0.5"><title>Week of 2025-07-25: 35 commits</title></rect>
<rect class="bar" x="966" y="195" width="3" height="5" fill="#40c463" rx="0.5" ry="0.5"><title>Week of 2025-08-01: 18 commits</title></rect>
<text x="966" y="220" class="month-label" transform="rotate(45, 966, 220)">Aug</text>
<rect class="bar" x="970" y="198" width="3" height="2" fill="#40c463" rx="0.5" ry="0.5"><title>Week of 2025-08-08: 4 commits</title></rect>
<rect class="bar" x="974" y="198" width="3" height="2" fill="#40c463" rx="0.5" ry="0.5"><title>Week of 2025-08-15: 5 commits</title></rect>
<rect class="bar" x="978" y="189" width="3" height="11" fill="#40c463" rx="0.5" ry="0.5"><title>Week of 2025-08-22: 36 commits</title></rect>
<rect class="bar" x="982" y="198" width="3" height="2" fill="#40c463" rx="0.5" ry="0.5"><title>Week of 2025-08-29: 5 commits</title></rect>
<rect class="bar" x="986" y="189" width="3" height="11" fill="#40c463" rx="0.5" ry="0.5"><title>Week of 2025-09-05: 34 commits</title></rect>
<text x="986" y="220" class="month-label" transform="rotate(45, 986, 220)">Sep</text>
<rect class="bar" x="990" y="198" width="3" height="2" fill="#40c463" rx="0.5" ry="0.5"><title>Week of 2025-09-12: 5 commits</title></rect>
<rect class="bar" x="994" y="198" width="3" height="2" fill="#40c463" rx="0.5" ry="0.5"><title>Week of 2025-09-19: 3 commits</title></rect>
<rect class="bar" x="998" y="198" width="3" height="2" fill="#ebedf0" rx="0.5" ry="0.5"><title>Week of 2025-09-26: 0 commits</title></rect>
<rect class="bar" x="1002" y="195" width="3" height="5" fill="#40c463" rx="0.5" ry="0.5"><title>Week of 2025-10-03: 18 commits</title></rect>
<text x="1002" y="220" class="month-label" transform="rotate(45, 1002, 220)">Oct</text>
<rect class="bar" x="1006" y="188" width="3" height="12" fill="#40c463" rx="0.5" ry="0.5"><title>Week of 2025-10-10: 39 commits</title></rect>
<rect class="bar" x="1010" y="191" width="3" height="9" fill="#40c463" rx="0.5" ry="0.5"><title>Week of 2025-10-17: 29 commits</title></rect>
<rect class="bar" x="1014" y="197" width="3" height="3" fill="#40c463" rx="0.5" ry="0.5"><title>Week of 2025-10-24: 12 commits</title></rect>
<rect class="bar" x="1018" y="193" width="3" height="7" fill="#40c463" rx="0.5" ry="0.5"><title>Week of 2025-10-31: 22 commits</title></rect>
<rect class="bar" x="1022" y="197" width="3" height="3" fill="#40c463" rx="0.5" ry="0.5"><title>Week of 2025-11-07: 12 commits</title></rect>
<text x="1022" y="220" class="month-label" transform="rotate(45, 1022, 220)">Nov</text>
<rect class="bar" x="1026" y="195" width="3" height="5" fill="#40c463" rx="0.5" ry="0.5"><title>Week of 2025-11-14: 17 commits</title></rect>
<rect class="bar" x="1030" y="188" width="3" height="12" fill="#40c463" rx="0.5" ry="0.5"><title>Week of 2025-11-21: 37 commits</title></rect>
<rect class="bar" x="1034" y="198" width="3" height="2" fill="#40c463" rx="0.5" ry="0.5"><title>Week of 2025-11-28: 2 commits</title></rect>
<rect class="bar" x="1038" y="190" width="3" height="10" fill="#40c463" rx="0.5" ry="0.5"><title>Week of 2025-12-05: 33 commits</title></rect>
<text x="1038" y="220" class="month-label" transform="rotate(45, 1038, 220)">Dec</text>
<rect class="bar" x="1042" y="179" width="3" height="21" fill="#40c463" rx="0.5" ry="0.5"><title>Week of 2025-12-12: 67 commits</title></rect>
<rect class="bar" x="1046" y="170" width="3" height="30" fill="#40c463" rx="0.5" ry="0.5"><title>Week of 2025-12-19: 93 commits</title></rect>
<rect class="bar" x="1050" y="181" width="3" height="19" fill="#40c463" rx="0.5" ry="0.5"><title>Week of 2025-12-26: 60 commits</title></rect>
<rect class="bar" x="1054" y="193" width="3" height="7" fill="#40c463" rx="0.5" ry="0.5"><title>Week of 2026-01-02: 22 commits</title></rect>
<text x="1054" y="240" class="year-label">2026</text>
<line x1="1054" y1="50" x2="1054" y2="220" stroke="#e1e4e8" stroke-dasharray="2,2" />
<rect class="bar" x="1058" y="193" width="3" height="7" fill="#40c463" rx="0.5" ry="0.5"><title>Week of 2026-01-09: 23 commits</title></rect>
<rect class="bar" x="1062" y="188" width="3" height="12" fill="#40c463" rx="0.5" ry="0.5"><title>Week of 2026-01-16: 38 commits</title></rect>
<rect class="bar" x="1066" y="166" width="3" height="34" fill="#40c463" rx="0.5" ry="0.5"><title>Week of 2026-01-23: 105 commits</title></rect>
<rect class="bar" x="1070" y="165" width="3" height="35" fill="#40c463" rx="0.5" ry="0.5"><title>Week of 2026-01-30: 107 commits</title></rect>
<rect class="bar" x="1074" y="179" width="3" height="21" fill="#40c463" rx="0.5" ry="0.5"><title>Week of 2026-02-06: 64 commits</title></rect>
<text x="1074" y="220" class="month-label" transform="rotate(45, 1074, 220)">Feb</text>
<rect class="bar" x="1078" y="190" width="3" height="10" fill="#40c463" rx="0.5" ry="0.5"><title>Week of 2026-02-13: 32 commits</title></rect>
<rect class="bar" x="1082" y="190" width="3" height="10" fill="#40c463" rx="0.5" ry="0.5"><title>Week of 2026-02-20: 31 commits</title></rect>
<rect class="bar" x="1086" y="176" width="3" height="24" fill="#40c463" rx="0.5" ry="0.5"><title>Week of 2026-02-27: 75 commits</title></rect>
<rect class="bar" x="1090" y="168" width="3" height="32" fill="#40c463" rx="0.5" ry="0.5"><title>Week of 2026-03-06: 100 commits</title></rect>
<text x="1090" y="220" class="month-label" transform="rotate(45, 1090, 220)">Mar</text>
<rect class="bar" x="1094" y="163" width="3" height="37" fill="#40c463" rx="0.5" ry="0.5"><title>Week of 2026-03-13: 114 commits</title></rect>
<rect class="bar" x="1098" y="141" width="3" height="59" fill="#40c463" rx="0.5" ry="0.5"><title>Week of 2026-03-20: 182 commits</title></rect>
<rect class="bar" x="1102" y="101" width="3" height="99" fill="#40c463" rx="0.5" ry="0.5"><title>Week of 2026-03-27: 302 commits</title></rect>
<rect class="bar" x="1106" y="50" width="3" height="150" fill="#40c463" rx="0.5" ry="0.5"><title>Week of 2026-04-03: 457 commits</title></rect>
<text x="1106" y="220" class="month-label" transform="rotate(45, 1106, 220)">Apr</text>
<rect class="bar" x="1110" y="139" width="3" height="61" fill="#40c463" rx="0.5" ry="0.5"><title>Week of 2026-04-10: 188 commits</title></rect>
<rect class="bar" x="1114" y="153" width="3" height="47" fill="#40c463" rx="0.5" ry="0.5"><title>Week of 2026-04-17: 144 commits</title></rect>
</svg>